SplineFontDB: 3.2
FontName: FilmScore
FullName: FilmScore
FamilyName: FilmScore
Weight: Regular
Copyright: Copyright (c) 2021, Jacob Winkler
UComments: "2021-4-6: Created with FontForge (http://fontforge.org)"
Version: 001.000
ItalicAngle: 0
UnderlinePosition: -133.301
UnderlineWidth: 48.8281
Ascent: 800
Descent: 200
InvalidEm: 0
LayerCount: 2
Layer: 0 0 "Back" 1
Layer: 1 0 "Fore" 0
XUID: [1021 512 563788097 30622]
FSType: 0
OS2Version: 0
OS2_WeightWidthSlopeOnly: 0
OS2_UseTypoMetrics: 0
CreationTime: 1617742370
ModificationTime: 1730585621
PfmFamily: 17
TTFWeight: 400
TTFWidth: 5
LineGap: 42
VLineGap: 0
OS2TypoAscent: 693
OS2TypoAOffset: 0
OS2TypoDescent: -200
OS2TypoDOffset: 0
OS2TypoLinegap: 150
OS2WinAscent: 1699
OS2WinAOffset: 0
OS2WinDescent: 216
OS2WinDOffset: 0
HheadAscent: 891
HheadAOffset: 0
HheadDescent: -216
HheadDOffset: 0
OS2CapHeight: 662
OS2XHeight: 447
OS2Vendor: 'PfEd'
MarkAttachClasses: 1
DEI: 91125

StartChar: q
Encoding: 113 113 1
Width: 799
Flags: W
HStem: 1 21G<400.5 408.5 776 783.5> 333 20G<403.5 411>
VStem: 759 41<339 1413>
LayerCount: 2
Fore
SplineSet
800 1413 m 5
 800 338 l 1
 800 335 l 2
 800 334 800 334 800 334 c 2
 800 329 797 321 793 318 c 2
 626 177 l 1
 793 38 l 2
 798 34 800 28 800 21 c 0
 800 12 789 1 778 1 c 0
 774 1 772 3 768 5 c 2
 594 153 l 1
 416 5 l 2
 412 3 411 1 406 1 c 0
 395 1 392 12 392 23 c 0
 392 28 394 33 399 38 c 2
 566 177 l 1
 399 318 l 2
 395 322 392 328 392 335 c 0
 392 342 398 353 409 353 c 0
 413 353 416 352 420 350 c 2
 594 202 l 1
 759 339 l 1
 758 1413 l 5
 800 1413 l 5
EndSplineSet
Validated: 1
EndChar

StartChar: e
Encoding: 101 101 2
Width: 905
Flags: W
HStem: 1 21G<506.5 514.5 882 889.5> 333 20G<509.5 517> 1236 176<-2 864>
VStem: 865 41<339 1236>
LayerCount: 2
Fore
SplineSet
899 38 m 2
 904 34 906 28 906 21 c 0
 906 12 895 1 884 1 c 0
 880 1 878 3 874 5 c 2
 700 153 l 1
 522 5 l 2
 518 3 517 1 512 1 c 0
 501 1 498 12 498 23 c 0
 498 28 500 33 505 38 c 2
 672 177 l 1
 505 318 l 2
 501 322 498 328 498 335 c 0
 498 342 504 353 515 353 c 0
 519 353 522 352 526 350 c 2
 700 202 l 1
 865 339 l 1
 864 1236 l 1
 -2 1236 l 1
 -2 1412 l 5
 907 1412 l 5
 906 338 l 2
 906 337 906 336 906 334 c 0
 905 329 903 321 899 318 c 2
 732 177 l 1
 899 38 l 2
EndSplineSet
Validated: 1
EndChar

StartChar: X
Encoding: 88 88 3
Width: 535
VWidth: 488
Flags: W
HStem: 0 131<102.478 209.569 321.432 428.523> 131 90<241.957 291.56> 221 130<102.48 209.662 321.341 428.523>
VStem: 95 126<14.3405 68 241.708 340.751> 240 54<155.805 196.517> 314.951 125.049<14.3383 108.976 245.307 340.88>
LayerCount: 2
Fore
SplineSet
360 131 m 1xbc
 374 131 l 2
 398 131 422 127 429 120 c 0
 434 113 440 89 440 65 c 0
 440 42 436 21 429 14 c 0
 419 5 398 0 377 0 c 0xbc
 353 0 330 5 321 14 c 0
 315.555555556 17.8888888889 314.950617284 32.6666666667 314.950617284 51.2757201646 c 0
 314.950617284 56.5925925926 315 62.2222222222 315 68 c 1
 308 87 285 131 266 131 c 0x5c
 249 131 231 92 224 73 c 0
 222 71 221 68 221 68 c 1
 221 45 217 21 210 14 c 0
 201 5 179 0 158 0 c 0
 134 0 112 5 102 14 c 0
 99 17 95 42 95 68 c 0
 95 92 99 117 102 120 c 0
 111 127 138 131 162 131 c 2
 175 131 l 1
 196 138 240 159 240 178 c 0
 240 187 189 214 175 223 c 0
 170 223 167 221 162 221 c 0
 138 221 112 228 102 235 c 0
 99 240 95 265 95 291 c 0
 95 315 99 339 102 341 c 0
 111 348 136 351 160 351 c 0xbc
 183 351 203 348 210 341 c 0
 217 336 221 311 221 287 c 1
 226 268 249 221 268 221 c 0x5c
 285 221 308 271 315 287 c 1
 315 292.333333333 314.950617284 297.814814815 314.950617284 303.148148148 c 0
 314.950617284 321.814814815 315.555555556 338.666666667 321 341 c 0
 328 348 353 351 377 351 c 0
 385 351 392 352 399 352 c 0
 412 352 422 350 429 341 c 1
 429 341 440 309 440 285 c 0
 440 262 436 242 429 235 c 0
 419 228 398 221 377 221 c 0
 370 221 365 223 360 223 c 0
 341 216 294 195 294 176 c 0
 294 166 344 138 360 131 c 1xbc
EndSplineSet
Validated: 1
EndChar

StartChar: x
Encoding: 120 120 4
Width: 540
Flags: W
HStem: 0 21G<78.5 86.5 454 461.5> 332 20G<78.5 86 454 459.5>
LayerCount: 2
Fore
SplineSet
467 37 m 2
 471 32 474 26 474 19 c 0
 474 10 467 0 456 0 c 0
 452 0 450 2 446 4 c 2
 268 151 l 1
 94 4 l 2
 90 2 89 0 84 0 c 0
 73 0 66 10 66 21 c 0
 66 26 68 32 73 37 c 2
 240 176 l 1
 73 316 l 2
 69 320 66 327 66 334 c 0
 66 341 73 352 84 352 c 0
 88 352 90 350 94 348 c 2
 268 200 l 1
 446 348 l 2
 450 350 452 352 456 352 c 0
 463 352 474 343 474 332 c 0
 474 327 471 320 467 316 c 2
 300 176 l 1
 467 37 l 2
EndSplineSet
Validated: 1
EndChar

StartChar: Q
Encoding: 81 81 5
Width: 693
Flags: HWO
HStem: 0 131<356.478 463.569 575.432 682.523> 131 90<495.608 544.297> 221 130<356.48 463.662 575.341 651.283>
VStem: 349 125<14.3405 68 241.708 340.751> 493 54<155.805 197.134> 568 125<14.3383 109.716 245.307 340.842> 652 41<352 1407>
LayerCount: 2
Fore
SplineSet
613 131 m 1xbc
 627 131 l 2
 651 131 676 127 683 120 c 0
 688 113 693 89 693 65 c 0
 693 42 690 21 683 14 c 0
 673 5 652 0 631 0 c 0xbc
 607 0 584 5 575 14 c 0
 568 19 568 42 568 68 c 1
 561 87 539 131 520 131 c 0x5c
 503 131 485 92 478 73 c 0
 476 71 474 68 474 68 c 1
 474 45 471 21 464 14 c 0
 455 5 433 0 412 0 c 0
 388 0 366 5 356 14 c 0
 353 17 349 42 349 68 c 0
 349 92 353 117 356 120 c 0
 365 127 391 131 415 131 c 2
 429 131 l 1
 450 138 493 159 493 178 c 0
 493 187 443 214 429 223 c 0
 424 223 420 221 415 221 c 0
 391 221 366 228 356 235 c 0
 353 240 349 265 349 291 c 0
 349 315 353 339 356 341 c 0
 365 348 390 351 414 351 c 0xbc
 437 351 457 348 464 341 c 0
 471 336 474 311 474 287 c 1
 479 268 502 221 521 221 c 0
 538 221 561 271 568 287 c 1x5c
 568 311 568 338 575 341 c 0
 582 348 607 351 631 351 c 0
 639 351 646 352 652 352 c 1
 652 1411 l 5
 693 1411 l 5x3a
 693 292 l 2
 693 290 693 287 693 285 c 0
 693 262 690 242 683 235 c 0
 673 228 652 221 631 221 c 0
 624 221 618 223 613 223 c 0
 594 216 547 195 547 176 c 0
 547 166 597 138 613 131 c 1xbc
EndSplineSet
EndChar

StartChar: E
Encoding: 69 69 6
Width: 905
Flags: W
HStem: 0 131<570.477 677.568 789.431 896.523> 131 90<708.957 758.56> 221 130<570.48 677.662 789.341 864.536> 1236 176<-2 864>
VStem: 563 125<14.3405 68 241.708 340.751> 707 54<155.805 197.134> 782 125<14.3383 108.976 245.307 340.842> 865 42<352 1236>
LayerCount: 2
Fore
SplineSet
827 131 m 1xbe
 841 131 l 2
 865 131 890 127 897 120 c 0
 902 113 907 89 907 65 c 0
 907 42 904 21 897 14 c 0
 887 5 865 0 844 0 c 0xbe
 820 0 798 5 789 14 c 0
 782 19 782 42 782 68 c 1
 775 87 752 131 733 131 c 0x5e
 716 131 698 92 691 73 c 0
 689 71 688 68 688 68 c 1
 688 45 685 21 678 14 c 0
 669 5 646 0 625 0 c 0
 601 0 580 5 570 14 c 0
 567 17 563 42 563 68 c 0
 563 92 567 117 570 120 c 0
 579 127 605 131 629 131 c 2
 643 131 l 1
 664 138 707 159 707 178 c 0
 707 187 657 214 643 223 c 0
 638 223 634 221 629 221 c 0
 605 221 580 228 570 235 c 0
 567 240 563 265 563 291 c 0
 563 315 567 339 570 341 c 0
 579 348 603 351 627 351 c 0xbe
 650 351 671 348 678 341 c 0
 685 336 688 311 688 287 c 1
 693 268 716 221 735 221 c 0
 752 221 775 271 782 287 c 1x5e
 782 311 782 338 789 341 c 0
 796 348 820 351 844 351 c 0
 852 351 859 352 865 352 c 1
 864 1236 l 5
 -2 1236 l 5
 -2 1412 l 1
 907 1412 l 1x3d
 907 293 l 2
 907 291 907 287 907 285 c 0
 907 262 904 242 897 235 c 0
 887 228 865 221 844 221 c 0
 837 221 832 223 827 223 c 0
 808 216 761 195 761 176 c 0
 761 166 811 138 827 131 c 1xbe
EndSplineSet
Validated: 1
EndChar

StartChar: hyphen
Encoding: 45 45 7
Width: 485
Flags: W
HStem: 264 278<0 487>
LayerCount: 2
Fore
SplineSet
0 542 m 1
 487 542 l 1
 487 264 l 1
 0 264 l 1
 0 542 l 1
EndSplineSet
Validated: 1
EndChar

StartChar: bar
Encoding: 124 124 8
Width: 272
Flags: W
HStem: 0 21G<0 98> 780 20G<0 98>
VStem: -0 98<0 800>
LayerCount: 2
Fore
SplineSet
-0 800 m 1
 98 800 l 1
 98 0 l 1
 -0 0 l 1
 -0 800 l 1
EndSplineSet
Validated: 1
EndChar

StartChar: bracketright
Encoding: 93 93 9
Width: 3051
Flags: W
HStem: 0 21G<2669 2767> 265 276<-6 2669> 780 20G<2669 2767>
VStem: 2669 98<0 265 541 800>
LayerCount: 2
Fore
SplineSet
2669 800 m 1
 2767 800 l 1
 2767 0 l 1
 2669 0 l 1
 2669 265 l 1
 -6 265 l 1
 -6 541 l 1
 2669 541 l 1
 2669 800 l 1
EndSplineSet
Validated: 1
EndChar

StartChar: p
Encoding: 112 112 10
Width: 1184
Flags: W
HStem: 264 278<0 599 757 1185> 264 180<599 756.898> 491 21G<655 693> 589 31<284.679 364.762 711.688 788.165 1058 1168.36> 617 301G<903 940 1166.5 1172> 701 30<1035 1143> 712 33<38 125.385> 793 34<549.549 611.516 709.577 791.212 1051.59 1130.31> 866 33<38 127.479>
VStem: -0 38<593 712 745 866> 145 40<759.11 851.529> 237 37<628.299 822> 384 37<642.661 822> 391 30<593 624> 488 37<593 770.341 781 822> 655 38<491 622 643.708 774.386> 655 31<791 822> 809 38<642.013 774.011> 903 37<593 918> 996 38<641.661 701> 1143 38<731 777.435>
LayerCount: 2
Fore
SplineSet
748 -12 m 1024x007278
0 542 m 1x807278
 599 542 l 1x807278
 599 465 l 2
 599 455 601 452 605 449 c 0
 609 445 613 444 624 444 c 2
 731 444 l 2x407278
 740 444 745 449 749 452 c 0
 753 456 757 460 757 468 c 2
 757 542 l 1
 1185 542 l 1
 1185 264 l 1
 0 264 l 1
 0 542 l 1x807278
1092 796 m 0
 1075 796 1062 790 1052 778 c 0
 1043 767 1037 752 1035 731 c 1
 1143 731 l 1x047278
 1143 750 1138 766 1130 778 c 0
 1122 790 1109 796 1092 796 c 0
1092 827 m 0x157278
 1120 827 1141 817 1157 798 c 0
 1173 779 1181 754 1181 723 c 2
 1181 701 l 1
 1034 701 l 1
 1035 675 1041 655 1052 641 c 0
 1064 628 1081 621 1102 621 c 0
 1116 621 1127 622 1138 625 c 0
 1149 628 1161 632 1172 637 c 1
 1172 604 l 1
 1161 599 1150 595 1139 593 c 0
 1128 590 1115 589 1100 589 c 0
 1069 589 1044 598 1025 618 c 0
 1006 638 996 668 996 706 c 0
 996 744 1005 774 1022 795 c 0
 1040 816 1063 827 1092 827 c 0x157278
940 593 m 1
 903 593 l 1
 903 918 l 1
 940 918 l 1x087278
 940 593 l 1
752 795 m 0
 731 795 715 788 706 775 c 0
 697 762 693 743 693 716 c 2
 693 708 l 2
 693 680 697 658 706 643 c 0
 715 628 730 620 753 620 c 0x107378
 772 620 786 628 795 645 c 0
 804 662 809 683 809 709 c 0
 809 735 804 755 795 771 c 0
 786 787 771 795 752 795 c 0
759 827 m 0x317378
 786 827 807 817 823 797 c 0
 839 777 847 747 847 708 c 0
 847 669 839 639 823 619 c 0
 807 599 786 589 759 589 c 0
 742 589 728 592 717 599 c 0
 706 606 699 613 693 622 c 1
 690 622 l 1
 690 617 690 611 691 604 c 0
 692 597 693 590 693 585 c 2
 693 491 l 1
 655 491 l 1x317378
 655 822 l 1
 686 822 l 1x3172f8
 691 791 l 1
 693 791 l 1
 699 801 707 809 717 816 c 0
 728 823 742 827 759 827 c 0x317378
590 827 m 0
 594 827 598 827 603 826 c 0
 608 826 612 825 615 824 c 2
 611 790 l 1
 604 792 596 793 588 793 c 0
 571 793 557 785 544 771 c 0
 531 757 525 739 525 716 c 2
 525 593 l 1
 488 593 l 1
 488 822 l 1
 519 822 l 1
 523 781 l 1
 525 781 l 1
 532 794 540 804 551 813 c 0
 562 822 575 827 590 827 c 0
421 822 m 1x107a78
 421 593 l 1
 391 593 l 1x107678
 385 624 l 1
 384 624 l 1
 377 612 367 603 354 597 c 0
 342 592 329 589 315 589 c 0
 289 589 270 596 257 609 c 0
 244 622 237 643 237 672 c 2
 237 822 l 1
 274 822 l 1
 274 675 l 2
 274 638 290 620 322 620 c 0
 345 620 361 628 370 642 c 0
 379 656 384 676 384 703 c 2
 384 822 l 1
 421 822 l 1x107a78
74 866 m 2x02f278
 38 866 l 1
 38 745 l 1
 66 745 l 2
 93 745 113 750 126 759 c 0
 139 768 145 784 145 807 c 0
 145 827 140 841 128 851 c 0
 117 861 99 866 74 866 c 2x02f278
77 899 m 2
 115 899 142 891 159 875 c 0
 176 859 185 837 185 809 c 0
 185 796 183 784 179 772 c 0
 175 760 168 750 159 741 c 0
 150 732 139 725 124 720 c 0
 109 715 92 712 71 712 c 2
 38 712 l 1
 38 593 l 1
 -0 593 l 1
 -0 899 l 1
 77 899 l 2
EndSplineSet
Validated: 1
EndChar

StartChar: plus
Encoding: 43 43 11
Width: 801
VWidth: 488
Flags: W
HStem: 0 74<293.144 370 433 510.103> 367 64<77 370 433 726> 724 74<302.137 370 433 510.103>
VStem: 3 74<299.404 367 431 498.596> 370 63<74 367 431 724> 726 74<289.897 367 431 508.103>
CounterMasks: 1 fc
LayerCount: 2
Fore
SplineSet
77 431 m 1
 370 431 l 1
 370 724 l 1
 231 706 98 570 77 431 c 1
77 367 m 1
 98 225 231 92 370 74 c 1
 370 367 l 1
 77 367 l 1
433 724 m 1
 433 431 l 1
 726 431 l 1
 708 570 575 706 433 724 c 1
433 367 m 1
 433 74 l 1
 575 92 708 225 726 367 c 1
 433 367 l 1
3 399 m 0
 3 619 183 798 401 798 c 0
 621 798 800 619 800 399 c 0
 800 179 621 0 401 0 c 0
 183 0 3 179 3 399 c 0
EndSplineSet
Validated: 1
EndChar

StartChar: w
Encoding: 119 119 12
Width: 1084
Flags: W
HStem: 264 278<0 1086> 589 33<811.283 865.811 957.116 1072.48> 617 282G<2 46.7312 158.674 209.591 324.269 368 407 444 774.286 802 1067.5 1073> 701 30<936 1044> 794 29<461.168 542.731 802 864 953.673 1029.41> 861 48<660.188 689.812>
VStem: 407 37<594 773.293 791.469 919> 553 37<594 787.765> 657 37<594 823 867.189 902.811> 765 37<630.33 794> 780 22<851.5 876> 897 38<642.66 701> 1044 39<731 777.435>
LayerCount: 2
Fore
SplineSet
0 542 m 1x8398
 1086 542 l 1
 1086 264 l 1
 0 264 l 1
 0 542 l 1x8398
993 796 m 0
 976 796 963 791 953 779 c 0
 944 768 938 752 936 731 c 1
 1044 731 l 1x9398
 1044 750 1039 766 1031 778 c 0
 1023 790 1010 796 993 796 c 0
993 827 m 0
 1021 827 1042 818 1058 799 c 0
 1074 780 1083 755 1083 724 c 2
 1083 701 l 1
 935 701 l 1
 936 675 942 656 953 642 c 0
 965 629 982 622 1003 622 c 0
 1017 622 1028 622 1039 625 c 0
 1050 628 1062 632 1073 637 c 1
 1073 604 l 1
 1062 599 1051 595 1040 593 c 0
 1029 590 1016 589 1001 589 c 0xd398
 970 589 945 599 926 619 c 0
 907 639 897 669 897 707 c 0
 897 745 906 774 923 795 c 0
 941 816 964 827 993 827 c 0
835 620 m 0
 840 620 846 621 852 622 c 0
 858 623 862 624 866 625 c 1
 866 596 l 1
 862 594 856 593 849 592 c 0
 842 591 836 589 829 589 c 0
 812 589 797 594 784 604 c 0
 771 614 765 632 765 660 c 2
 765 794 l 1xcbd8
 735 794 l 1
 735 812 l 1
 766 827 l 1
 780 876 l 1
 802 876 l 1
 802 823 l 1xcbb8
 864 823 l 1
 864 794 l 1
 802 794 l 1
 802 661 l 2xcbd8
 802 647 805 637 811 630 c 0
 817 623 825 620 835 620 c 0
694 823 m 1
 694 594 l 1
 657 594 l 1
 657 823 l 1
 694 823 l 1
675 909 m 0x8798
 681 909 686 907 690 903 c 0
 694 899 697 893 697 885 c 0
 697 877 694 871 690 867 c 0
 686 863 681 861 675 861 c 0
 669 861 664 863 660 867 c 0
 656 871 654 877 654 885 c 0
 654 893 656 899 660 903 c 0
 664 907 669 909 675 909 c 0x8798
444 919 m 1
 444 823 l 2x8b98
 444 811 443 801 442 791 c 1
 444 791 l 1
 451 803 460 812 472 818 c 0
 484 824 497 827 511 827 c 0
 537 827 557 820 570 807 c 0
 583 794 590 772 590 743 c 2
 590 594 l 1
 553 594 l 1
 553 740 l 2
 553 777 538 796 506 796 c 0
 482 796 466 789 457 774 c 0
 448 759 444 739 444 712 c 2
 444 594 l 1
 407 594 l 1
 407 919 l 1
 444 919 l 1
368 899 m 1xa398
 292 594 l 1
 253 594 l 1
 199 794 l 2x8b98
 196 806 192 818 189 830 c 0
 186 842 184 850 184 854 c 1
 183 850 182 842 179 830 c 0
 177 818 173 806 170 793 c 2
 117 594 l 1
 78 594 l 1
 2 899 l 1
 42 899 l 1
 86 713 l 2
 92 686 97 662 100 640 c 1
 101 651 102 663 105 676 c 0
 108 689 112 702 115 715 c 2
 164 899 l 1
 204 899 l 1
 256 713 l 2
 259 700 262 687 265 674 c 0
 268 661 269 650 271 640 c 1
 274 662 278 686 285 713 c 2
 329 899 l 1
 368 899 l 1xa398
EndSplineSet
Validated: 1
EndChar

StartChar: y
Encoding: 121 121 13
Width: 1227
Flags: W
HStem: 264 278<0 1229> 593 32<310.79 428.484 745.64 835.696> 594 38<995.466 1003.59 1138.74 1146.71> 700 30<293 401> 783 40<1065.7 1075.4> 796 31<311.422 384.792 750.352 829.604> 898 0G<2 53.7333 181.133 232 493 530 598 635>
VStem: 98 38<593 710> 253 39<641.66 700 730 777.481> 401 38<730 776.435> 493 37<593 918> 598 37<593 918> 690 39<641.01 774.591> 853 38<641.6 773.423>
LayerCount: 2
Fore
SplineSet
0 542 m 1x93fc
 1229 542 l 1
 1229 264 l 1
 0 264 l 1
 0 542 l 1x93fc
1123 594 m 1xbbfc
 1087 723 l 2
 1084 735 1080 746 1077 757 c 0
 1074 768 1073 776 1072 783 c 1
 1070 783 l 1
 1069 776 1067 768 1064 757 c 0
 1061 746 1058 734 1055 722 c 2
 1018 594 l 1
 976 594 l 1
 917 823 l 1
 955 823 l 1
 985 700 l 2
 988 687 990 676 993 663 c 0
 996 650 997 640 998 632 c 1
 1000 632 l 1
 1001 639 1003 649 1006 661 c 0
 1009 674 1011 685 1014 694 c 2
 1051 823 l 1
 1092 823 l 1
 1128 694 l 2
 1131 684 1133 673 1136 662 c 0
 1139 651 1141 640 1142 632 c 1
 1144 632 l 1
 1145 639 1146 649 1149 662 c 0
 1152 675 1155 687 1158 700 c 2
 1188 823 l 1
 1226 823 l 1
 1166 594 l 1
 1123 594 l 1xbbfc
729 708 m 0
 729 681 733 660 743 644 c 0
 753 628 770 620 791 620 c 0
 812 620 828 628 838 644 c 0
 848 660 853 681 853 708 c 0
 853 735 847 757 837 772 c 0
 827 787 811 795 790 795 c 0
 769 795 753 787 743 772 c 0
 733 757 729 735 729 708 c 0
891 708 m 0
 891 670 882 641 863 620 c 0
 845 599 821 589 790 589 c 0
 761 589 737 599 718 620 c 0
 699 641 690 670 690 708 c 0
 690 746 699 774 717 795 c 0
 735 816 760 827 791 827 c 0x97fc
 820 827 844 816 863 795 c 0
 882 774 891 746 891 708 c 0
635 593 m 1xd3fc
 598 593 l 1
 598 918 l 1
 635 918 l 1
 635 593 l 1xd3fc
530 593 m 1
 493 593 l 1
 493 918 l 1
 530 918 l 1
 530 593 l 1
349 796 m 0x97fc
 332 796 319 790 309 778 c 0
 300 767 295 751 293 730 c 1
 401 730 l 1
 401 749 396 765 388 777 c 0
 380 789 366 796 349 796 c 0x97fc
349 827 m 0
 377 827 399 817 415 798 c 0
 431 779 439 754 439 723 c 2
 439 700 l 1
 292 700 l 1
 293 674 299 655 310 641 c 0
 322 628 338 621 359 621 c 0
 373 621 385 622 396 625 c 0
 407 628 418 632 429 637 c 1
 429 604 l 1
 418 599 407 595 396 593 c 0xd7fc
 385 590 373 589 358 589 c 0
 327 589 301 598 282 618 c 0
 263 638 253 668 253 706 c 0
 253 744 263 774 280 795 c 0
 298 816 320 827 349 827 c 0
117 748 m 1
 191 898 l 1
 232 898 l 1
 136 712 l 1
 136 593 l 1
 98 593 l 1
 98 710 l 1
 2 898 l 1
 44 898 l 1
 117 748 l 1
EndSplineSet
Validated: 1
EndChar

StartChar: o
Encoding: 111 111 14
Width: 1387
Flags: W
HStem: 264 278<0 913 1178.21 1388> 264 177.997<942.023 1120.81> 494 32<971.845 1089.56> 593 31<78.3072 178.39 518.35 585.83 1009.04 1076.2 1262.7 1371.39> 621 20G<1369.5 1375> 704 30<525.475 611 1239 1346> 793 10G<438.5 444.857 498.143 510.5> 799 32<384.632 441.671 508.543 600.534 776.029 850.016 1009.89 1076.1 1255.91 1331.21> 873 34<73.3928 183.188>
VStem: -4 40<662.475 836.429> 221 40<662.379 836.323> 320 37<597 774.34> 320 30<784 826> 471 39<629.787 695.106> 611 37<639.52 709 735 787.622> 621 27<597 625.875> 714 37<597 776.339> 714 30<795 826> 860 37<597 790.765> 952 38<643.333 778.541> 1107 37<543.519 627 642.614 777.338 796 826> 1114 30<796 826> 1199 39<645.614 704 734 781.481> 1346 39<734 780.435>
LayerCount: 2
Fore
SplineSet
0 542 m 1x84e433
 913 542 l 1x84e433
 913 479 l 1
 954.250809347 452.929488493 995.937235787 441.996670987 1033.92628106 441.996670987 c 0x44e433
 1111.05329614 441.996670987 1172.94011655 487.060530931 1185 542 c 1
 1388 542 l 1
 1388 264 l 1
 0 264 l 1
 0 542 l 1x84e433
1295 800 m 0
 1278 800 1265 794 1255 782 c 0
 1246 771 1241 755 1239 734 c 1
 1346 734 l 1
 1346 753 1341 769 1333 781 c 0
 1325 793 1312 800 1295 800 c 0
1295 831 m 0x15e433
 1323 831 1344 821 1360 802 c 0
 1376 783 1385 758 1385 727 c 2
 1385 704 l 1
 1238 704 l 1
 1239 678 1244 658 1256 645 c 0
 1268 632 1284 625 1305 625 c 0
 1319 625 1332 626 1342 629 c 0
 1353 632 1364 636 1375 641 c 1x0de433
 1375 608 l 2
 1375 603 1353 600 1342 597 c 0
 1331 594 1319 593 1304 593 c 0
 1273 593 1247 602 1228 622 c 0
 1209 642 1199 672 1199 710 c 0
 1199 748 1207 777 1225 798 c 0
 1243 819 1266 831 1295 831 c 0x15e433
1046 799 m 0
 1028 799 1014 791 1004 776 c 0
 995 761 990 739 990 711 c 0
 990 683 994 661 1004 646 c 0
 1013 631 1028 624 1047 624 c 0
 1068 624 1083 630 1093 642 c 0
 1103 655 1107 674 1107 702 c 2
 1107 711 l 2x15e43b
 1107 742 1102 764 1092 778 c 0
 1082 792 1067 799 1046 799 c 0
1040 831 m 0
 1069 831 1091 796 1107 796 c 2x35e43b
 1109 796 l 1
 1114 826 l 1x35e437
 1144 826 l 1
 1144 593 l 2
 1144 527 1112 494 1046 494 c 0
 1015 494 968 499 968 509 c 2
 968 544 l 1
 978 538 990 533 1004 530 c 0
 1018 527 1033 526 1048 526 c 0x35e43b
 1066 526 1080 531 1091 543 c 0
 1102 554 1107 570 1107 590 c 2
 1107 599 l 2
 1107 602 1107 608 1107 614 c 0
 1107 621 1108 624 1108 627 c 1
 1106 627 l 2
 1091 627 1069 593 1040 593 c 0
 1012 593 990 603 975 624 c 0
 960 645 952 673 952 711 c 0
 952 747 960 777 975 798 c 0
 991 820 1012 831 1040 831 c 0
819 831 m 0
 845 831 864 823 877 810 c 0
 890 797 897 775 897 746 c 2
 897 597 l 1
 860 597 l 1
 860 744 l 2
 860 781 845 799 813 799 c 0
 789 799 773 791 764 777 c 0
 755 763 751 743 751 716 c 2
 751 597 l 1
 714 597 l 1x05e4b3
 714 826 l 1
 744 826 l 1x05e473
 749 795 l 1
 752 795 l 2
 759 795 768 816 780 822 c 0
 792 828 805 831 819 831 c 0
611 709 m 1x04e633
 580 708 l 2
 553 707 535 702 525 694 c 0
 515 686 510 675 510 660 c 0
 510 647 514 638 521 632 c 0
 528 626 537 623 548 623 c 0
 566 623 581 628 593 639 c 0
 605 650 611 667 611 689 c 2
 611 709 l 1x04e633
569 830 m 0
 595 830 615 823 628 811 c 0
 641 799 648 780 648 753 c 2x14e633
 648 597 l 1
 621 597 l 1
 613 630 l 1
 612 630 l 2
 603 630 593 607 582 601 c 0
 572 595 557 593 539 593 c 0x14e533
 519 593 504 598 491 609 c 0
 478 620 471 638 471 661 c 0
 471 684 480 701 497 713 c 0
 514 725 539 733 574 734 c 2
 611 735 l 1
 611 749 l 2
 611 768 607 780 599 788 c 0
 591 796 581 800 567 800 c 0
 556 800 545 798 535 794 c 0
 525 790 515 786 506 782 c 1
 495 810 l 2
 495 811 515 820 528 824 c 0
 541 828 554 830 569 830 c 0
422 831 m 0x05ec33
 426 831 429 830 434 830 c 0
 439 830 447 828 447 828 c 1
 442 793 l 1
 435 795 427 796 419 796 c 0
 402 796 389 789 376 775 c 0
 363 761 357 742 357 719 c 2
 357 597 l 1
 320 597 l 1x06f433
 320 826 l 1
 350 826 l 1
 354 784 l 1
 356 784 l 2
 363 784 371 808 382 817 c 0
 393 826 407 831 422 831 c 0x05ec33
36 750 m 0
 36 712 43 681 58 659 c 0
 73 637 97 626 129 626 c 0
 161 626 184 637 199 659 c 0
 214 681 221 712 221 750 c 0
 221 788 214 818 199 840 c 0
 184 862 161 873 129 873 c 0
 97 873 73 862 58 840 c 0
 43 818 36 788 36 750 c 0
261 750 m 0
 261 703 251 665 228 636 c 0
 205 607 172 593 129 593 c 0x14e433
 84 593 50 607 28 636 c 0
 6 665 -4 704 -4 751 c 0
 -4 798 6 835 28 864 c 0
 50 893 84 907 129 907 c 0
 172 907 205 893 228 864 c 0
 251 835 261 797 261 750 c 0
EndSplineSet
Validated: 1
EndChar

StartChar: r
Encoding: 114 114 15
Width: 655
Flags: W
HStem: 264 278<0 656> 593 32<292.79 410.484 516.594 596.862> 701 30<275 382> 719 33<39 94> 796 31<293.735 367.74 522.099 594.786> 865 34<39 129.479> 898 20G<405.5 411 618 655>
VStem: 1 38<593 719 752 865> 146 40<764.47 852.845> 235 39<641.615 701 731 777.481> 382 39<731 777.435> 463 38<640.467 774.105> 618 37<640.615 771.246 793.143 918> 625 30<593 624>
LayerCount: 2
Fore
SplineSet
0 542 m 1xc9f0
 656 542 l 1
 656 264 l 1
 0 264 l 1
 0 542 l 1xc9f0
558 620 m 0
 580 620 595 627 604 640 c 0
 613 653 618 673 618 700 c 2
 618 707 l 2xc9f8
 618 735 614 756 605 772 c 0
 596 787 580 796 557 796 c 0
 538 796 524 787 515 771 c 0
 506 755 501 734 501 707 c 0
 501 680 506 658 515 643 c 0
 524 628 539 620 558 620 c 0
551 589 m 0
 524 589 503 598 487 618 c 0
 471 638 463 668 463 707 c 0
 463 746 471 776 487 796 c 0
 503 816 524 827 551 827 c 0
 568 827 581 824 592 817 c 0
 603 810 611 793 618 793 c 2
 620 793 l 1
 619 796 619 802 618 809 c 0
 617 816 618 823 618 827 c 2
 618 918 l 1
 655 918 l 1xcbf8
 655 593 l 1
 625 593 l 1xcbf4
 619 624 l 1
 618 624 l 2
 611 624 603 606 592 599 c 0
 581 592 568 589 551 589 c 0
331 796 m 0
 314 796 301 790 291 778 c 0
 282 767 277 752 275 731 c 1
 382 731 l 1xe9f0
 382 750 378 766 370 778 c 0
 362 790 348 796 331 796 c 0
331 827 m 0
 359 827 381 817 397 798 c 0
 413 779 421 754 421 723 c 2
 421 701 l 1
 274 701 l 1
 275 675 280 654 292 641 c 0
 304 628 320 621 341 621 c 0
 355 621 368 622 378 625 c 0
 389 628 400 632 411 637 c 1
 411 604 l 2
 411 599 389 596 378 593 c 0
 367 590 355 589 340 589 c 0
 309 589 283 598 264 618 c 0
 245 638 235 668 235 706 c 0
 235 744 243 774 261 795 c 0
 279 816 302 827 331 827 c 0
78 865 m 2xddf0
 39 865 l 1
 39 752 l 1
 80 752 l 2
 103 752 120 756 131 766 c 0
 142 776 146 791 146 810 c 0
 146 830 141 843 130 852 c 0
 119 861 101 865 78 865 c 2xddf0
81 899 m 2
 117 899 143 891 160 877 c 0
 177 863 186 841 186 812 c 0
 186 787 180 769 168 756 c 0
 156 744 143 735 128 730 c 1
 208 593 l 1
 163 593 l 1
 94 719 l 1
 39 719 l 1
 39 593 l 1
 1 593 l 1
 1 899 l 1
 81 899 l 2
EndSplineSet
Validated: 1
EndChar

StartChar: b
Encoding: 98 98 16
Width: 789
Flags: W
HStem: 264 278<0 790> 590 33<38 145.526 403.265 483.591 656.565 774.484> 614 301G<257 294 769.5 775> 698 30<638 746> 734 32<38 137.65> 793 31<657.735 731.011> 863 33<38 135.48>
VStem: 0 38<623 734 766 863> 153 39<776.994 852.332> 161 40<637.39 720.66> 257 37<590 915> 360 37<624.896 820> 506 37<639.661 820> 514 29<590 621> 599 39<638.615 698> 746 39<728 774.435>
LayerCount: 2
Fore
SplineSet
0 542 m 1x8133
 790 542 l 1
 790 264 l 1
 0 264 l 1
 0 542 l 1x8133
695 793 m 0x9533
 678 793 665 787 655 775 c 0
 646 764 640 749 638 728 c 1
 746 728 l 1
 746 747 741 763 733 775 c 0
 725 787 712 793 695 793 c 0x9533
695 824 m 0
 723 824 744 814 760 795 c 0
 776 776 785 751 785 720 c 2
 785 698 l 1
 638 698 l 1
 639 672 644 651 656 638 c 0
 668 625 684 618 705 618 c 0
 719 618 731 619 741 622 c 0
 752 625 764 629 775 634 c 1
 775 601 l 2
 775 596 753 593 742 590 c 0xd533
 731 587 718 586 703 586 c 0
 672 586 647 596 628 616 c 0
 609 636 599 665 599 703 c 0
 599 741 607 771 625 792 c 0
 643 813 666 824 695 824 c 0
543 820 m 1xc13b
 543 590 l 1
 514 590 l 1xc137
 508 621 l 1
 506 621 l 2
 499 621 490 600 477 594 c 0
 465 589 452 586 438 586 c 0
 412 586 392 593 379 606 c 0
 366 619 360 640 360 669 c 2
 360 820 l 1
 397 820 l 1
 397 672 l 2
 397 635 412 617 444 617 c 0
 467 617 484 625 493 639 c 0
 502 653 506 673 506 700 c 2
 506 820 l 1
 543 820 l 1xc13b
294 590 m 1
 257 590 l 1xc133
 257 915 l 1
 294 915 l 1xa133
 294 590 l 1
38 734 m 1xc973
 38 623 l 1
 94 623 l 2
 119 623 136 629 146 639 c 0
 156 650 161 663 161 680 c 0
 161 696 156 709 146 719 c 0
 136 729 118 734 92 734 c 2
 38 734 l 1xc973
38 766 m 1
 90 766 l 2
 114 766 130 770 139 778 c 0
 148 787 153 799 153 816 c 0
 153 833 147 844 136 852 c 0
 125 859 108 863 84 863 c 2
 38 863 l 1x8bb3
 38 766 l 1
0 896 m 1
 83 896 l 2
 119 896 145 890 164 879 c 0
 183 868 192 848 192 820 c 0xc3b3
 192 802 187 787 178 775 c 0
 169 763 138 755 138 752 c 2
 138 750 l 2
 138 747 171 740 183 729 c 0
 195 718 201 701 201 677 c 0
 201 649 192 628 174 613 c 0
 156 598 132 590 101 590 c 2
 0 590 l 1xc373
 0 896 l 1
EndSplineSet
Validated: 1
EndChar

StartChar: d
Encoding: 100 100 17
Width: 1381
Flags: W
HStem: 264 278<0 1382> 589 58<508.235 543.765> 595 33<38 143 1015.57 1133.48 1238.65 1319.13> 703 29<998 1105> 721 33<762 817> 798 31<1016.73 1091.01 1245.1 1317.79> 868 33<38 145.263 762 852.479> 900 20G<289 325 1128.5 1134 1341 1378>
VStem: 0 38<628 868> 190 40<670.786 829.052> 289 36<595 679 713 920> 501 51<596.236 639.81> 724 38<595 721 754 867> 869 40<766.47 854.845> 958 39<643.615 703 732 779.481> 1105 39<732 779.434> 1186 38<642.467 776.105> 1341 37<642.615 773.246 795.143 920> 1348 30<595 626>
LayerCount: 2
Fore
SplineSet
0 542 m 1x84ff80
 1382 542 l 1
 1382 264 l 1
 0 264 l 1
 0 542 l 1x84ff80
1281 622 m 0
 1303 622 1318 629 1327 642 c 0
 1336 655 1341 675 1341 702 c 2
 1341 709 l 2x84ffc0
 1341 737 1337 758 1328 774 c 0
 1319 789 1303 797 1280 797 c 0
 1261 797 1247 789 1238 773 c 0
 1229 757 1224 736 1224 709 c 0
 1224 682 1229 660 1238 645 c 0
 1247 630 1262 622 1281 622 c 0
1274 591 m 0
 1247 591 1226 600 1210 620 c 0
 1194 640 1186 670 1186 709 c 0
 1186 748 1194 778 1210 798 c 0
 1226 818 1247 829 1274 829 c 0
 1291 829 1304 826 1315 819 c 0
 1326 812 1334 795 1341 795 c 2
 1343 795 l 1
 1342 798 1342 804 1341 811 c 0
 1340 818 1341 825 1341 829 c 2
 1341 920 l 1
 1378 920 l 1xa5ffc0
 1378 595 l 1
 1348 595 l 1xa5ffa0
 1342 626 l 1
 1341 626 l 2
 1334 626 1325 608 1314 601 c 0
 1303 594 1291 591 1274 591 c 0
1054 798 m 0
 1037 798 1024 792 1014 780 c 0
 1005 769 1000 753 998 732 c 1
 1105 732 l 1x94ff80
 1105 751 1101 768 1093 780 c 0
 1085 792 1071 798 1054 798 c 0
1054 829 m 0
 1082 829 1103 819 1119 800 c 0
 1135 781 1144 756 1144 725 c 2
 1144 703 l 1
 997 703 l 1
 998 677 1003 656 1015 643 c 0
 1027 630 1043 623 1064 623 c 0
 1078 623 1091 624 1101 627 c 0
 1112 630 1123 634 1134 639 c 1
 1134 606 l 2
 1134 601 1112 598 1101 595 c 0xb4ff80
 1090 592 1078 591 1063 591 c 0
 1032 591 1006 600 987 620 c 0
 968 640 958 670 958 708 c 0
 958 746 966 776 984 797 c 0
 1002 818 1025 829 1054 829 c 0
801 867 m 2
 762 867 l 1
 762 754 l 1
 803 754 l 2x8cff80
 826 754 843 758 854 768 c 0
 865 778 869 793 869 812 c 0
 869 832 864 845 853 854 c 0
 842 863 824 867 801 867 c 2
803 901 m 2xaeff80
 839 901 866 893 883 879 c 0
 900 865 909 843 909 814 c 0
 909 789 903 771 891 758 c 0
 879 746 866 737 851 732 c 1xb6ff80
 931 595 l 1
 886 595 l 1
 817 721 l 1
 762 721 l 1
 762 595 l 1
 724 595 l 1
 724 901 l 1
 803 901 l 2xaeff80
501 618 m 0
 501 628 503 636 508 640 c 0
 513 645 519 647 526 647 c 0
 533 647 539 644 544 640 c 0
 549 636 552 628 552 618 c 0
 552 608 549 601 544 596 c 0
 539 591 533 589 526 589 c 0xc4ff80
 519 589 513 591 508 596 c 0
 503 601 501 608 501 618 c 0
325 920 m 1xb5ff80
 325 750 l 2
 325 745 326 740 325 732 c 0
 324 725 324 718 324 713 c 1
 325 713 l 2
 328 713 332 722 337 729 c 0
 342 736 347 743 351 747 c 2
 419 824 l 1
 463 824 l 1
 375 726 l 1
 469 595 l 1
 424 595 l 1
 350 702 l 1
 325 679 l 1
 325 595 l 1
 289 595 l 1
 289 920 l 1
 325 920 l 1xb5ff80
190 750 m 0
 190 790 181 820 162 839 c 0
 143 858 118 868 84 868 c 2
 38 868 l 1xa6ff80
 38 628 l 1
 76 628 l 2
 152 628 190 669 190 750 c 0
230 751 m 0
 230 699 218 660 191 634 c 0
 164 608 127 595 80 595 c 2
 0 595 l 1
 0 901 l 1
 89 901 l 2
 132 901 166 888 192 862 c 0
 218 837 230 800 230 751 c 0
EndSplineSet
Validated: 1
EndChar

StartChar: g
Encoding: 103 103 18
Width: 1112
Flags: W
HStem: 264 278<0 1114> 601 32<82.5462 201.671 516.565 634.484 743.79 861.484> 625 20G<629.5 635 856.5 862> 709 30<498 606 726 834> 728 34<140 202> 804 31<370.434 427.143 517.735 591.011 745.453 818.74 981.943 1061.2> 860 21G<217 230.485> 877 34<88.4619 227.589>
VStem: 2 40<671.661 832.472> 202 38<632.832 728> 304 37<601 778.341> 304 30<789 830> 459 39<649.661 709> 606 39<739 785.435> 687 38<649.661 709> 834 38<739 785.435> 926 37<601 780.339> 926 30<799 830> 1072 37<601 795.354>
LayerCount: 2
Fore
SplineSet
0 542 m 1x84cf20
 1114 542 l 1
 1114 264 l 1
 0 264 l 1
 0 542 l 1x84cf20
1031 835 m 0
 1057 835 1076 828 1089 815 c 0
 1102 802 1109 779 1109 750 c 2
 1109 601 l 1
 1072 601 l 1
 1072 748 l 2
 1072 785 1057 803 1025 803 c 0
 1001 803 985 796 976 781 c 0
 967 767 963 747 963 720 c 2
 963 601 l 1
 926 601 l 1xc4cfa0
 926 830 l 1
 956 830 l 1xc4cf60
 962 799 l 1
 964 799 l 1
 971 811 980 820 992 826 c 0
 1004 832 1017 835 1031 835 c 0
782 804 m 0
 765 804 753 798 743 786 c 0
 734 775 728 760 726 739 c 1
 834 739 l 1x94cf20
 834 758 829 774 821 786 c 0
 813 798 799 804 782 804 c 0
782 835 m 0
 810 835 832 825 848 806 c 0
 864 787 872 762 872 731 c 2
 872 709 l 1
 725 709 l 1
 726 683 732 663 743 649 c 0
 755 636 772 629 793 629 c 0
 807 629 818 630 829 633 c 0xd4cf20
 840 636 851 640 862 645 c 1xa4cf20
 862 612 l 1
 851 607 840 603 829 601 c 0xc4cf20
 818 598 806 597 791 597 c 0
 760 597 734 606 715 626 c 0
 696 646 687 676 687 714 c 0
 687 752 696 782 713 803 c 0
 731 824 753 835 782 835 c 0
555 804 m 0
 538 804 525 798 515 786 c 0
 506 775 500 760 498 739 c 1
 606 739 l 1
 606 758 601 774 593 786 c 0
 585 798 572 804 555 804 c 0
555 835 m 0
 583 835 604 825 620 806 c 0
 636 787 645 762 645 731 c 2
 645 709 l 1
 498 709 l 1
 499 683 505 663 516 649 c 0
 528 636 544 629 565 629 c 0
 579 629 590 630 601 633 c 0xd4cf20
 612 636 624 640 635 645 c 1xa4cf20
 635 612 l 1
 624 607 613 603 602 601 c 0
 591 598 578 597 563 597 c 0
 532 597 507 606 488 626 c 0
 469 646 459 676 459 714 c 0
 459 752 468 782 485 803 c 0
 503 824 526 835 555 835 c 0
406 835 m 0
 410 835 413 835 418 834 c 0
 423 834 428 833 431 832 c 2
 427 798 l 1
 420 800 411 801 403 801 c 0
 386 801 373 793 360 779 c 0
 347 765 341 747 341 724 c 2
 341 601 l 1
 304 601 l 1xc4ef20
 304 830 l 1
 334 830 l 1xc4df20
 338 789 l 1
 340 789 l 1
 347 802 356 812 367 821 c 0
 378 830 391 835 406 835 c 0
140 762 m 1x8dcf20
 240 762 l 1
 240 613 l 1
 225 608 209 604 193 601 c 0
 177 598 159 597 139 597 c 0
 95 597 61 611 37 639 c 0
 14 667 2 706 2 754 c 0
 2 802 15 839 41 868 c 0
 67 897 104 911 151 911 c 0xcdcf20
 183 910 211 904 236 893 c 1
 222 860 l 1x86cf20
 212 865 201 869 188 872 c 0
 175 876 162 877 149 877 c 0
 115 877 89 866 70 844 c 0
 51 822 42 792 42 754 c 0
 42 717 50 688 66 665 c 0
 83 642 109 630 147 630 c 0
 159 630 169 631 178 632 c 0
 187 633 195 636 202 638 c 1
 202 728 l 1
 140 728 l 1
 140 762 l 1x8dcf20
EndSplineSet
Validated: 1
EndChar

StartChar: B
Encoding: 66 66 19
Width: 895
Flags: W
HStem: 264 278<0 896> 590 20<2 32.718 92 167.512 274 308.858 366.141 400 509.135 559.543 646.329 671 786.867 843.966> 626 20G<872.5 876> 702 24<753 845> 739 23<92 163.872> 800 20<416 440.717 554 578.671 774.717 827.317> 873 23<2 32.718 92 163.217> 896 19<274 308.565>
VStem: 42 50<615.145 739 762 870.856> 180 53<772.556 862.906> 192 53<624.998 723.957> 314 47<620.19 885.811> 451 47<632.517 794.856> 589 47<635.611 794.856> 704 49<635.662 702 726 780.387> 845 49<726 778.387>
LayerCount: 2
Fore
SplineSet
0 542 m 1xfc9f
 896 542 l 1
 896 264 l 1
 0 264 l 1
 0 542 l 1xfc9f
753 726 m 1
 845 726 l 1
 845 748 842 766 835 779 c 0
 828 793 818 800 802 800 c 0
 787 800 775 794 767 781 c 0
 759 768 754 750 753 726 c 1
806 586 m 0
 773 586 749 596 731 617 c 0
 713 638 704 666 704 703 c 0
 704 743 712 774 729 794 c 0
 746 814 771 824 802 824 c 0
 831 824 853 815 869 798 c 0
 886 781 894 756 894 722 c 2
 894 702 l 1
 753 702 l 1
 754 671 759 649 769 635 c 0
 780 621 794 614 814 614 c 0
 829 614 842 618 852 624 c 0
 863 630 870 638 875 646 c 0
 877 645 879 643 881 640 c 0
 883 637 884 633 884 629 c 0
 884 623 882 617 876 610 c 0
 871 603 862 598 850 593 c 0
 839 588 824 586 806 586 c 0
521 586 m 0
 498 586 481 593 469 606 c 0
 457 619 451 641 451 670 c 2
 451 771 l 2
 451 784 448 792 441 795 c 0
 435 799 427 800 418 800 c 2
 416 800 l 1
 416 820 l 1
 498 820 l 1
 498 675 l 2
 498 656 501 643 507 632 c 0
 513 622 524 616 540 616 c 0
 557 616 569 623 577 635 c 0
 585 648 589 663 589 684 c 2
 589 771 l 2
 589 784 586 792 579 795 c 0
 572 798 564 800 555 800 c 2
 554 800 l 1
 554 820 l 1
 636 820 l 1
 636 638 l 2
 636 625 639 617 646 614 c 0
 653 611 661 610 670 610 c 2
 671 610 l 1
 671 590 l 1
 599 590 l 1
 592 624 l 1
 590 624 l 1
 581 608 571 598 559 593 c 0
 547 588 535 586 521 586 c 0
274 590 m 1
 274 610 l 1
 280 610 l 2
 286 610 291 611 296 612 c 0
 301 613 306 616 309 620 c 0
 312 624 314 631 314 640 c 2
 314 868 l 2
 314 876 312 882 309 886 c 0
 306 890 301 893 296 894 c 0
 291 895 286 896 280 896 c 2
 274 896 l 1
 274 915 l 1
 361 915 l 1xfd9f
 361 640 l 2
 361 631 363 624 366 620 c 0
 369 616 373 613 378 612 c 0
 383 611 389 610 395 610 c 2
 400 610 l 1
 400 590 l 1
 274 590 l 1
92 613 m 1
 130 613 l 2
 153 613 169 618 178 627 c 0
 187 636 192 652 192 675 c 0xfcbf
 192 697 188 713 179 723 c 0
 170 734 154 739 131 739 c 2
 92 739 l 1
 92 613 l 1
92 762 m 1
 118 762 l 2
 142 762 157 766 166 775 c 0
 175 784 180 799 180 819 c 0
 180 840 174 853 165 861 c 0
 156 869 140 873 117 873 c 2
 92 873 l 1xfedf
 92 762 l 1
2 590 m 1
 2 610 l 1
 11 610 l 2
 20 610 27 612 33 615 c 0
 39 618 42 627 42 640 c 2
 42 848 l 2
 42 860 39 868 33 871 c 0
 27 874 20 877 11 877 c 2
 2 877 l 1
 2 896 l 1
 119 896 l 2
 157 896 185 890 204 877 c 0
 223 865 233 846 233 819 c 0xfedf
 233 800 227 785 217 775 c 0
 207 765 194 758 179 753 c 1
 179 750 l 1
 199 746 215 739 227 726 c 0
 239 713 245 695 245 673 c 0xfebf
 245 618 208 590 132 590 c 2
 2 590 l 1
EndSplineSet
Validated: 1
EndChar

StartChar: D
Encoding: 68 68 20
Width: 1561
Flags: W
HStem: 264 278<0 1561> 594 60<593.282 633.719> 597 19<1 31.718 91 159.95 309 341.565 399.428 430 530.462 558 796 826.718 896.282 927 1043.44 1070 1174.78 1228.27 1399.7 1444.93 1532.33 1560> 708 24<1139 1231> 731 21<886 920> 806 25<444 465.999 508.642 543 1158.08 1215.9 1394.38 1450.1> 883 19<1 31.718 91 161.184 796 826.718 886 951.429> 902 20<309 341.858 1436 1463.67>
VStem: 42 49<621.145 877.856> 223 55<659.575 841.595> 347 47<626.19 682 705 892.81> 585 58<600.237 647.81> 837 49<621.144 731 752 877.856> 976 53<767.62 868.645> 1090 48<641.662 708 732 786.387> 1231 49<732 785.386> 1323 48<636.689 784.734> 1475 47<643.708 777.246 794 896.856>
LayerCount: 2
Fore
SplineSet
0 542 m 1x84ffc0
 1561 542 l 1
 1561 264 l 1
 0 264 l 1
 0 542 l 1x84ffc0
1421 621 m 0
 1442 621 1455 628 1463 643 c 0
 1471 658 1475 680 1475 711 c 0
 1475 740 1471 762 1463 778 c 0
 1455 794 1441 802 1420 802 c 0
 1402 802 1390 794 1382 778 c 0
 1375 762 1371 740 1371 711 c 0
 1371 681 1375 658 1382 643 c 0
 1390 628 1403 621 1421 621 c 0
1410 592 m 0
 1382 592 1360 602 1345 621 c 0
 1330 640 1323 670 1323 711 c 0
 1323 752 1330 783 1345 802 c 0
 1360 821 1382 831 1410 831 c 0
 1426 831 1440 827 1450 820 c 0
 1461 813 1469 805 1475 794 c 1
 1478 794 l 1
 1477 801 1476 809 1475 818 c 0
 1475 827 1475 835 1475 842 c 2
 1475 874 l 2
 1475 886 1471 894 1464 897 c 0
 1457 900 1449 902 1440 902 c 2
 1436 902 l 1
 1436 922 l 1
 1522 922 l 1
 1522 645 l 2
 1522 632 1525 624 1532 621 c 0
 1539 618 1548 616 1557 616 c 2
 1560 616 l 1
 1560 597 l 1
 1485 597 l 1xa5ffc0
 1478 634 l 1
 1476 634 l 1
 1469 621 1461 611 1451 604 c 0
 1441 597 1427 592 1410 592 c 0
1139 732 m 1x94ffc0
 1231 732 l 1
 1231 754 1228 773 1221 786 c 0
 1214 800 1204 806 1188 806 c 0
 1173 806 1161 800 1153 787 c 0
 1145 774 1140 756 1139 732 c 1x94ffc0
1192 592 m 0
 1160 592 1135 602 1117 623 c 0
 1099 644 1090 673 1090 710 c 0
 1090 750 1098 780 1115 800 c 0
 1132 820 1157 831 1188 831 c 0
 1217 831 1239 821 1255 804 c 0
 1272 787 1280 762 1280 728 c 2
 1280 708 l 1
 1138 708 l 1
 1139 677 1145 655 1155 641 c 0
 1166 627 1180 621 1200 621 c 0
 1215 621 1228 624 1238 630 c 0
 1249 636 1256 644 1261 652 c 0
 1263 651 1265 649 1267 646 c 0
 1269 643 1270 640 1270 636 c 0
 1270 630 1268 623 1262 616 c 0xb4ffc0
 1257 609 1248 604 1236 599 c 0
 1225 594 1210 592 1192 592 c 0
886 752 m 1x8cffc0
 915 752 l 2
 938 752 954 758 963 769 c 0
 972 780 976 796 976 818 c 0
 976 841 972 857 962 866 c 0
 953 876 937 880 914 880 c 2
 886 880 l 1
 886 752 l 1x8cffc0
796 597 m 1xaeffc0
 796 616 l 1
 805 616 l 2
 814 616 821 618 827 621 c 0
 833 624 837 632 837 644 c 2
 837 855 l 2
 837 867 833 875 827 878 c 0
 821 881 814 883 805 883 c 2
 796 883 l 1
 796 902 l 1
 917 902 l 2
 955 902 984 895 1002 881 c 0
 1021 867 1029 847 1029 820 c 0
 1029 805 1026 793 1020 782 c 0
 1014 772 1006 764 997 757 c 0
 988 751 978 746 968 742 c 1
 1024 651 l 2
 1031 639 1038 630 1045 624 c 0
 1052 618 1059 616 1068 616 c 2
 1070 616 l 1
 1070 597 l 1
 1061 597 l 2
 1043 597 1030 597 1020 599 c 0
 1010 601 1002 605 995 610 c 0
 988 616 981 624 975 635 c 2
 920 731 l 1
 886 731 l 1
 886 644 l 2
 886 632 890 624 896 621 c 0
 902 618 909 616 918 616 c 2
 927 616 l 1
 927 597 l 1
 796 597 l 1xaeffc0
614 594 m 0xc4ffc0
 606 594 599 596 593 600 c 0
 587 605 585 613 585 624 c 0
 585 636 587 644 593 648 c 0
 599 652 606 654 614 654 c 0
 622 654 628 652 634 648 c 0
 640 644 643 636 643 624 c 0
 643 613 640 605 634 600 c 0
 628 596 622 594 614 594 c 0xc4ffc0
309 597 m 1xa5ffc0
 309 616 l 1
 313 616 l 2
 319 616 324 617 329 618 c 0
 334 619 339 622 342 626 c 0
 345 630 347 637 347 646 c 2
 347 874 l 2
 347 882 345 889 342 893 c 0
 339 897 334 899 329 900 c 0
 324 901 319 902 313 902 c 2
 309 902 l 1
 309 922 l 1
 394 922 l 1
 394 757 l 2
 394 753 394 748 394 742 c 0
 394 736 393 731 393 725 c 0
 393 720 392 715 392 711 c 2
 392 705 l 1
 446 764 l 2
 454 773 459 780 462 785 c 0
 465 790 466 794 466 798 c 0
 466 802 464 804 460 805 c 0
 457 806 451 807 444 807 c 1
 444 826 l 1
 543 826 l 1
 543 807 l 1
 533 807 523 804 513 797 c 0
 504 790 493 781 482 768 c 2
 453 735 l 1
 510 651 l 2
 517 640 525 630 532 624 c 0
 539 618 548 616 557 616 c 2
 558 616 l 1
 558 597 l 1
 552 597 l 2
 539 597 528 597 519 598 c 0
 510 599 502 600 496 603 c 0
 490 606 484 610 479 615 c 0
 474 620 469 628 463 637 c 2
 421 702 l 1
 394 682 l 1
 394 644 l 2
 394 636 396 630 399 626 c 0
 402 622 406 619 411 618 c 0
 416 617 422 616 428 616 c 2
 430 616 l 1
 430 597 l 1
 309 597 l 1xa5ffc0
91 620 m 1
 125 620 l 2
 158 620 183 631 199 654 c 0xc4ffc0
 216 677 223 709 223 751 c 0
 223 793 216 824 199 846 c 0
 183 868 158 879 125 879 c 2
 91 879 l 1
 91 620 l 1
1 597 m 1xa6ffc0
 1 616 l 1
 10 616 l 2
 19 616 26 618 32 621 c 0
 38 624 42 633 42 646 c 2
 42 855 l 2
 42 867 38 875 32 878 c 0
 26 881 19 883 10 883 c 2
 1 883 l 1
 1 902 l 1
 135 902 l 2
 180 902 215 889 240 863 c 0
 265 837 278 800 278 751 c 0
 278 720 272 692 261 669 c 0
 250 646 235 628 214 615 c 0
 193 602 167 597 135 597 c 2
 1 597 l 1xa6ffc0
EndSplineSet
Validated: 1
EndChar

StartChar: G
Encoding: 71 71 21
Width: 1231
Flags: W
HStem: 264 278<0 1232> 594 19<113.903 198.448 301 326.671 394.329 430 604.921 654.285 837.744 887.285 973 999.672 1067.33 1093 1204.28 1229> 629 20G<687.5 691 920.5 924> 705 25<568 659 801 893> 717 19<162 188.717 256.237 280> 796 32<402.492 442.302> 804 24<302 326.671 587.247 643.653 820.247 876.653 975 1000.72 1081.9 1129.55> 880 24<102.203 188.954>
VStem: 1 54<653.507 837.408> 199 50<615.769 710.81> 208 44<832.283 870.537> 337 47<619.19 787.717> 519 48<639.661 705 730 784.387> 659 50<730 782.387> 752 48<639.661 705 730 784.387> 893 49<730 782.387> 1011 47<619.19 798.856> 1149 47<619.19 782.528>
LayerCount: 2
Fore
SplineSet
0 542 m 1xe19fc0
 1232 542 l 1
 1232 264 l 1
 0 264 l 1
 0 542 l 1xe19fc0
973 594 m 1
 973 613 l 1
 976 613 l 2
 986 613 993 616 1000 619 c 0
 1007 623 1011 631 1011 644 c 2
 1011 776 l 2
 1011 788 1008 796 1001 799 c 0
 995 802 986 804 977 804 c 2
 975 804 l 1
 975 823 l 1
 1050 823 l 1
 1056 790 l 1
 1058 790 l 1
 1067 806 1077 816 1088 821 c 0
 1099 826 1110 828 1124 828 c 0
 1147 828 1164 821 1177 808 c 0
 1190 795 1196 774 1196 745 c 2
 1196 644 l 2
 1196 631 1199 623 1204 619 c 0
 1210 616 1217 613 1227 613 c 2
 1229 613 l 1
 1229 594 l 1
 1149 594 l 1
 1149 740 l 2
 1149 759 1146 773 1139 783 c 0
 1133 793 1121 798 1105 798 c 0
 1093 798 1084 795 1077 788 c 0
 1070 782 1065 774 1062 763 c 0
 1059 753 1058 742 1058 730 c 2xf39fc0
 1058 642 l 2
 1058 630 1061 621 1067 618 c 0
 1074 615 1082 613 1091 613 c 2
 1093 613 l 1
 1093 594 l 1
 973 594 l 1
801 730 m 1
 893 730 l 1
 893 752 890 770 883 783 c 0
 876 797 865 804 849 804 c 0
 834 804 823 798 815 785 c 0
 807 772 802 754 801 730 c 1
854 590 m 0
 821 590 796 600 778 621 c 0
 760 642 752 670 752 707 c 0
 752 747 760 778 777 798 c 0
 794 818 819 828 850 828 c 0
 879 828 901 819 917 802 c 0
 934 785 942 760 942 726 c 2
 942 705 l 1
 800 705 l 1
 801 674 806 653 816 639 c 0
 827 625 842 618 862 618 c 0
 877 618 889 622 899 628 c 0
 910 634 918 641 923 649 c 0
 925 648 927 646 929 643 c 0
 931 640 932 637 932 633 c 0
 932 627 929 620 923 613 c 0
 918 606 910 602 898 597 c 0
 887 592 872 590 854 590 c 0
568 730 m 1
 659 730 l 1
 659 752 657 770 650 783 c 0
 643 797 632 804 616 804 c 0
 601 804 590 798 582 785 c 0
 574 772 569 754 568 730 c 1
621 590 m 0
 589 590 563 600 545 621 c 0
 527 642 519 670 519 707 c 0
 519 747 527 778 544 798 c 0
 561 818 586 828 617 828 c 0
 646 828 668 819 684 802 c 0
 701 785 709 760 709 726 c 2
 709 705 l 1
 567 705 l 1
 568 674 573 653 583 639 c 0
 594 625 609 618 629 618 c 0
 644 618 656 622 666 628 c 0
 677 634 685 641 690 649 c 0
 692 648 694 646 696 643 c 0
 698 640 699 637 699 633 c 0
 699 627 696 620 690 613 c 0
 685 606 677 602 665 597 c 0
 654 592 639 590 621 590 c 0
301 594 m 1
 301 613 l 1
 302 613 l 2
 312 613 320 616 327 619 c 0
 334 623 337 631 337 644 c 2
 337 775 l 2
 337 788 334 796 327 799 c 0
 320 802 312 804 303 804 c 2
 302 804 l 1
 302 823 l 1
 373 823 l 1
 382 784 l 1
 384 784 l 1
 388 793 392 799 396 806 c 0
 401 813 406 818 413 822 c 0
 420 826 431 828 443 828 c 0xe39fc0
 459 828 470 826 478 820 c 0
 486 814 490 806 490 796 c 0
 490 786 486 777 479 771 c 0
 472 765 461 762 446 762 c 1
 446 774 444 783 441 788 c 0
 438 794 432 796 424 796 c 0xe59fc0
 416 796 409 794 404 788 c 0
 399 782 395 774 392 765 c 0
 389 756 387 747 386 737 c 0
 385 727 384 718 384 711 c 2
 384 642 l 2
 384 629 387 621 394 618 c 0
 401 615 409 613 418 613 c 2
 430 613 l 1
 430 594 l 1
 301 594 l 1
151 590 m 0
 117 590 89 597 67 610 c 0
 45 623 28 641 17 664 c 0
 6 688 1 715 1 747 c 0
 1 778 7 806 18 829 c 0
 30 853 46 871 69 884 c 0
 92 897 121 904 154 904 c 0
 187 904 211 899 227 890 c 0
 243 881 252 870 252 856 c 0
 252 847 247 838 239 832 c 0
 231 826 221 824 208 824 c 1xe9bfc0
 208 833 206 842 202 851 c 0
 198 860 192 867 184 872 c 0
 176 877 165 880 152 880 c 0
 117 880 93 868 78 845 c 0
 63 822 55 789 55 747 c 0
 55 705 63 672 78 649 c 0
 93 626 120 616 158 616 c 0
 165 616 172 615 179 616 c 0
 186 617 193 618 199 620 c 1
 199 687 l 2
 199 699 196 707 189 711 c 0
 183 715 175 717 165 717 c 2
 162 717 l 1
 162 736 l 1
 280 736 l 1
 280 717 l 1
 277 717 l 2
 269 717 261 715 256 711 c 0
 251 707 249 699 249 686 c 2
 249 610 l 1xe9dfc0
 234 603 218 598 202 595 c 0
 187 592 170 590 151 590 c 0
EndSplineSet
Validated: 1
EndChar

StartChar: O
Encoding: 79 79 22
Width: 1468
Flags: W
HStem: 264 278<0 986.944 1272.68 1469> 264 188<1030 1223.5> 496 22<1081.34 1176.58> 598 44<1096.14 1187.67> 599 19<101.609 177.133 313 337.672 406.329 442 581.291 625.088 705.19 727 755 781.672 849.329 875 986.282 1011 1362.31 1415.58> 634 20G<1446.5 1450> 680 22<1109.14 1157.06> 710 24<581.426 652 1327 1419> 803 30<413.062 453.802 858.842 920.188> 810 23<314 338.671 588.088 643.985 758 782.717 1105.15 1157.19 1348.85 1401.2> 812 30<1194.13 1236.19> 884 25<95.3034 183.872>
VStem: 2 54<655.097 848.156> 222 54<656.342 846.846> 349 47<623.191 794.109> 520 49<623.127 701.1> 538 42<769.19 796.576> 652 47<638.517 714 733 808.307> 663 64<599 618> 793 47<623.19 803.855> 931 47<623.191 785.986> 1030 39<527.266 588.739> 1050 45<709.932 801.586> 1059 32<643.797 678.4> 1167 45<709.889 801.146> 1199 39<536.583 593.254> 1278 48<643.662 710 734 788.387> 1419 49<734 787.386>
LayerCount: 2
Fore
SplineSet
0 542 m 1x831e1830
 977 542 l 1x831e1830
 994 501 1020 452 1130 452 c 0x431e1830
 1230 452 1267 504 1283 542 c 1
 1469 542 l 1
 1469 264 l 1
 0 264 l 1
 0 542 l 1x831e1830
1327 734 m 1
 1419 734 l 1
 1419 756 1416 775 1409 788 c 0
 1402 802 1391 808 1375 808 c 0
 1360 808 1349 802 1341 789 c 0
 1333 776 1328 758 1327 734 c 1
1380 595 m 0
 1347 595 1322 604 1304 625 c 0
 1286 646 1278 675 1278 712 c 0
 1278 752 1286 782 1303 802 c 0
 1320 822 1345 833 1376 833 c 0
 1405 833 1427 824 1443 807 c 0
 1460 790 1468 764 1468 730 c 2
 1468 710 l 1
 1326 710 l 1
 1327 679 1332 657 1342 643 c 0
 1353 629 1368 623 1388 623 c 0
 1403 623 1415 626 1425 632 c 0
 1436 638 1444 646 1449 654 c 0
 1451 653 1453 651 1455 648 c 0
 1457 645 1458 642 1458 638 c 0
 1458 632 1455 625 1449 618 c 0x0f5e1830
 1444 611 1436 606 1424 601 c 0
 1413 596 1398 595 1380 595 c 0
1123 518 m 0x331e1c70
 1142 518 1157 521 1168 525 c 0
 1179 529 1187 535 1192 542 c 0x831e1c70
 1197 549 1199 558 1199 568 c 0
 1199 580 1195 588 1188 592 c 0
 1181 596 1171 598 1158 598 c 2
 1114 598 l 2
 1107 598 1099 597 1092 595 c 0
 1085 593 1080 589 1075 584 c 0
 1071 579 1069 571 1069 560 c 0
 1069 548 1072 538 1080 530 c 0
 1088 522 1103 518 1123 518 c 0x331e1c70
1131 702 m 0
 1144 702 1154 706 1159 715 c 0
 1164 724 1167 737 1167 755 c 0
 1167 773 1164 787 1159 796 c 0
 1154 805 1144 810 1131 810 c 0
 1118 810 1109 806 1103 796 c 0
 1098 786 1095 772 1095 754 c 0x035e1ab0
 1095 737 1097 724 1103 715 c 0
 1109 706 1118 702 1131 702 c 0
1122 496 m 0x333e1970
 1091 496 1068 501 1053 512 c 0
 1038 523 1030 538 1030 558 c 0x333e1c70
 1030 574 1035 586 1046 595 c 0
 1057 604 1070 609 1085 611 c 1
 1079 614 1072 618 1067 624 c 0
 1062 630 1059 638 1059 647 c 0x333e1930
 1059 656 1062 664 1067 670 c 0
 1072 677 1080 683 1090 689 c 1
 1077 694 1067 701 1060 713 c 0
 1053 725 1050 739 1050 754 c 0
 1050 779 1056 797 1070 811 c 0
 1084 825 1105 833 1133 833 c 0x335e1a30
 1143 833 1152 831 1161 828 c 0
 1170 825 1177 823 1182 819 c 1
 1187 825 1193 829 1200 834 c 0
 1207 839 1215 842 1224 842 c 0x033e1a30
 1233 842 1240 840 1244 835 c 0
 1249 830 1251 825 1251 819 c 0
 1251 813 1249 808 1245 803 c 0x039e1a30
 1241 798 1235 796 1226 796 c 1
 1226 800 1225 804 1223 807 c 0
 1221 810 1217 812 1212 812 c 0
 1205 812 1199 810 1194 807 c 1
 1199 801 1204 794 1207 785 c 0
 1210 776 1212 766 1212 754 c 0x033e1ab0
 1212 733 1205 715 1192 701 c 0
 1179 687 1160 680 1133 680 c 0
 1130 680 1125 681 1120 681 c 0
 1115 682 1112 682 1109 683 c 0
 1104 680 1100 676 1096 672 c 0
 1092 668 1091 663 1091 657 c 0
 1091 652 1093 648 1096 645 c 0
 1099 642 1105 642 1115 642 c 2
 1165 642 l 2
 1191 642 1210 636 1221 624 c 0
 1232 612 1238 596 1238 577 c 0
 1238 552 1229 533 1210 518 c 0
 1191 503 1162 496 1122 496 c 0x333e1970
755 599 m 1x0b9e1830
 755 618 l 1
 758 618 l 2
 768 618 775 620 782 623 c 0
 789 627 793 635 793 648 c 2
 793 780 l 2
 793 792 790 801 783 804 c 0
 777 807 768 809 759 809 c 2
 758 809 l 1
 758 828 l 1
 832 828 l 1
 838 795 l 1
 840 795 l 1
 849 811 859 820 870 825 c 0
 881 830 892 833 906 833 c 0
 929 833 946 826 959 813 c 0
 972 800 978 778 978 749 c 2
 978 649 l 2
 978 636 981 627 986 623 c 0
 992 620 999 618 1009 618 c 2
 1011 618 l 1
 1011 599 l 1
 931 599 l 1
 931 745 l 2
 931 764 928 777 921 787 c 0
 915 797 904 803 888 803 c 0
 876 803 866 800 859 793 c 0
 852 787 847 779 844 768 c 0
 841 758 840 746 840 734 c 2
 840 646 l 2
 840 634 843 626 849 623 c 0
 856 620 864 618 873 618 c 2
 875 618 l 1
 875 599 l 1
 755 599 l 1x0b9e1830
600 622 m 0
 616 622 629 627 638 638 c 0
 647 649 652 662 652 680 c 2
 652 714 l 1
 627 713 l 2
 605 712 590 707 581 698 c 0
 572 689 569 677 569 661 c 0x031f5830
 569 635 579 622 600 622 c 0
586 595 m 0
 567 595 552 600 539 611 c 0
 526 622 520 640 520 663 c 0
 520 686 528 703 544 714 c 0
 560 725 584 731 617 732 c 2
 652 733 l 1
 652 758 l 2
 652 768 652 777 650 785 c 0
 649 793 645 799 640 803 c 0x0b9f5830
 635 808 627 810 616 810 c 0
 601 810 592 806 587 797 c 0
 582 788 580 776 580 763 c 1
 566 763 556 765 549 769 c 0
 542 773 538 781 538 791 c 0
 538 801 542 809 549 815 c 0
 556 821 565 825 577 828 c 0
 589 831 603 833 618 833 c 0
 645 833 666 827 679 816 c 0
 693 805 699 786 699 759 c 2
 699 649 l 2x035ed830
 699 637 701 628 705 624 c 0
 709 620 716 618 726 618 c 2
 727 618 l 1
 727 599 l 1
 663 599 l 1x0b5e3830
 656 633 l 1
 652 633 l 1
 646 625 641 619 635 613 c 0
 629 607 622 602 615 599 c 0x0b5e5830
 608 596 598 595 586 595 c 0
313 599 m 1
 313 618 l 1
 314 618 l 2
 324 618 331 620 338 623 c 0
 345 627 349 636 349 649 c 2
 349 780 l 2
 349 793 346 801 339 804 c 0
 332 807 324 809 315 809 c 2
 314 809 l 1
 314 828 l 1
 385 828 l 1
 393 788 l 1
 395 788 l 1
 399 797 403 804 407 811 c 0
 412 818 418 823 425 827 c 0
 432 831 442 833 454 833 c 0x0b5e1830
 470 833 482 830 490 824 c 0
 498 818 501 810 501 800 c 0
 501 790 498 782 491 776 c 0
 484 770 473 767 458 767 c 1
 458 779 456 787 453 792 c 0
 450 798 444 801 436 801 c 0
 428 801 421 798 416 792 c 0
 411 786 407 778 404 769 c 0
 401 760 398 751 397 741 c 0
 396 731 396 723 396 716 c 2
 396 647 l 2
 396 634 399 626 406 623 c 0
 413 620 421 618 430 618 c 2
 442 618 l 1
 442 599 l 1
 313 599 l 1
139 619 m 0
 170 619 191 631 203 654 c 0
 216 677 222 710 222 752 c 0
 222 794 216 826 203 849 c 0
 191 872 170 884 140 884 c 0
 110 884 88 872 75 849 c 0
 62 826 56 794 56 752 c 0
 56 710 62 677 75 654 c 0x071e1830
 88 631 109 619 139 619 c 0
139 595 m 0
 108 595 83 601 62 614 c 0
 42 627 27 645 17 669 c 0
 7 693 2 720 2 752 c 0
 2 784 7 812 17 835 c 0
 27 858 42 876 63 889 c 0
 84 902 109 909 140 909 c 0
 169 909 194 902 214 889 c 0
 235 876 250 858 261 834 c 0
 272 811 276 784 276 752 c 0
 276 720 272 693 261 669 c 0
 250 646 235 627 214 614 c 0
 193 601 168 595 139 595 c 0
EndSplineSet
Validated: 1
EndChar

StartChar: P
Encoding: 80 80 23
Width: 1350
Flags: W
HStem: 264 191<686 914> 491 19<740 770.675 829.435 861> 522 20<887.696 914> 593 20<2 33.7173 102.328 142 362.548 404.141 489.329 515 537 562.672 630.329 666 852.638 901.621 1005 1038.86 1096.14 1130 1242.06 1298.97> 629 20G<1327.5 1331> 705 24<1208 1300> 712 21<93 156.074> 796 31<636.577 685.929> 803 20<260 284.717 397 421.672 538 562.671 739 766.672 853.704 900.113 1229.72 1282.32> 877 22<2 33.7173 93 159.227> 899 19<1005 1038.57>
VStem: 43 50<618.145 712 733 873.856> 181 53<748.114 863.27> 294 47<634.518 797.856> 433 47<617.144 627 637.612 797.855> 573 47<618.19 789.109> 777 47<520.189 625 640.709 775.291 785 797.856> 928 48<633.743 782.311> 1044 47<623.19 888.811> 1159 48<638.662 705 729 783.387> 1300 49<729 781.387>
LayerCount: 2
Fore
SplineSet
0 542 m 1xf81ff8
 720 542 l 1
 720 529 703 524 686 522 c 1
 686 455 l 1
 914 455 l 1
 914 522 l 1
 892 523 879 532 879 542 c 1
 1350 542 l 1
 1350 264 l 1
 0 264 l 1
 0 542 l 1xf81ff8
1208 729 m 1xfc9ff8
 1300 729 l 1
 1300 751 1297 769 1290 782 c 0
 1283 796 1273 803 1257 803 c 0
 1242 803 1230 797 1222 784 c 0
 1214 771 1209 753 1208 729 c 1xfc9ff8
1261 589 m 0
 1229 589 1204 599 1186 620 c 0
 1168 641 1159 669 1159 706 c 0
 1159 746 1167 777 1184 797 c 0
 1201 817 1226 827 1257 827 c 0xfd1ff8
 1286 827 1308 818 1324 801 c 0
 1341 784 1349 759 1349 725 c 2
 1349 705 l 1
 1207 705 l 1
 1208 674 1214 652 1224 638 c 0
 1235 624 1249 617 1269 617 c 0
 1284 617 1297 621 1307 627 c 0
 1318 633 1325 641 1330 649 c 0
 1332 648 1334 646 1336 643 c 0
 1338 640 1339 636 1339 632 c 0
 1339 626 1337 620 1331 613 c 0
 1326 606 1317 601 1305 596 c 0
 1294 591 1279 589 1261 589 c 0
1005 593 m 1
 1005 613 l 1
 1010 613 l 2
 1016 613 1021 614 1026 615 c 0
 1031 616 1036 619 1039 623 c 0
 1042 627 1044 634 1044 643 c 2
 1044 871 l 2
 1044 879 1042 885 1039 889 c 0
 1036 893 1031 896 1026 897 c 0
 1021 898 1016 899 1010 899 c 2
 1005 899 l 1
 1005 918 l 1
 1091 918 l 1xf83ff8
 1091 643 l 2
 1091 634 1093 627 1096 623 c 0
 1099 619 1103 616 1108 615 c 0
 1113 614 1119 613 1125 613 c 2
 1130 613 l 1
 1130 593 l 1
 1005 593 l 1
879 617 m 0
 897 617 909 625 916 640 c 0
 924 655 928 678 928 708 c 0
 928 738 924 761 916 776 c 0
 909 791 897 798 879 798 c 0
 858 798 844 791 836 776 c 0
 828 761 824 738 824 708 c 0
 824 678 828 655 836 640 c 0
 844 625 858 617 879 617 c 0
740 491 m 1
 740 510 l 1
 743 510 l 2
 749 510 755 511 760 512 c 0
 765 513 769 517 772 521 c 0
 775 525 777 531 777 540 c 2
 777 774 l 2
 777 787 774 795 767 798 c 0
 760 801 753 803 744 803 c 2
 739 803 l 1
 739 823 l 1
 816 823 l 1xf89ff8
 821 785 l 1
 823 785 l 1
 830 798 838 808 848 815 c 0
 858 823 871 827 888 827 c 0xf91ff8
 917 827 938 817 953 798 c 0
 968 779 976 749 976 708 c 0
 976 667 968 636 953 617 c 0
 938 598 917 589 889 589 c 0
 872 589 860 592 849 599 c 0
 839 606 830 614 824 625 c 1
 822 625 l 1
 823 617 823 609 823 599 c 0
 824 589 824 582 824 576 c 2
 824 538 l 2
 824 530 826 524 829 520 c 0
 832 516 837 513 842 512 c 0
 847 511 852 510 858 510 c 2
 861 510 l 1
 861 491 l 1
 740 491 l 1
537 593 m 1
 537 613 l 1
 539 613 l 2
 549 613 556 615 563 618 c 0
 570 622 573 630 573 643 c 2
 573 774 l 2
 573 787 570 795 563 798 c 0
 556 801 548 803 539 803 c 2
 538 803 l 1
 538 823 l 1
 610 823 l 1xf89ff8
 618 783 l 1
 620 783 l 1
 624 792 628 799 632 806 c 0
 637 813 642 817 649 821 c 0
 656 825 667 827 679 827 c 0
 695 827 706 825 714 819 c 0
 722 813 726 805 726 795 c 0
 726 785 722 776 715 770 c 0
 708 764 697 761 682 761 c 1
 682 773 680 782 677 787 c 0
 674 793 668 796 660 796 c 0xf91ff8
 652 796 645 793 640 787 c 0
 635 781 631 773 628 764 c 0
 625 755 623 746 622 736 c 0
 621 726 620 717 620 710 c 2
 620 641 l 2
 620 628 623 620 630 617 c 0
 637 614 645 613 654 613 c 2
 666 613 l 1
 666 593 l 1
 537 593 l 1
365 589 m 0
 342 589 324 596 312 609 c 0
 300 622 294 644 294 673 c 2
 294 774 l 2
 294 787 292 795 285 798 c 0
 279 802 270 803 261 803 c 2
 260 803 l 1
 260 823 l 1
 341 823 l 1
 341 678 l 2
 341 659 344 645 350 634 c 0
 356 624 367 619 383 619 c 0
 400 619 413 625 421 637 c 0
 429 650 433 666 433 687 c 2
 433 773 l 2
 433 786 429 795 422 798 c 0
 415 801 408 803 399 803 c 2
 397 803 l 1
 397 823 l 1
 480 823 l 1
 480 641 l 2
 480 628 482 620 489 617 c 0
 496 614 504 613 513 613 c 2
 515 613 l 1
 515 593 l 1
 442 593 l 1
 436 627 l 1
 433 627 l 1
 424 611 415 601 403 596 c 0
 391 591 379 589 365 589 c 0
93 733 m 1xfa5ff8
 112 733 l 2
 137 733 154 739 165 750 c 0
 176 761 181 780 181 807 c 0
 181 831 176 849 167 860 c 0
 158 871 141 877 118 877 c 2
 93 877 l 1
 93 733 l 1xfa5ff8
2 593 m 1
 2 613 l 1
 11 613 l 2
 20 613 28 615 34 618 c 0
 40 621 43 630 43 643 c 2
 43 851 l 2
 43 863 40 871 34 874 c 0
 28 877 20 879 11 879 c 2
 2 879 l 1
 2 899 l 1
 126 899 l 2
 163 899 190 891 208 875 c 0
 226 859 234 837 234 809 c 0
 234 792 231 776 223 761 c 0
 216 746 202 735 185 726 c 0
 168 717 145 712 116 712 c 2
 93 712 l 1
 93 640 l 2
 93 628 96 620 102 617 c 0
 109 614 116 613 124 613 c 2
 142 613 l 1
 142 593 l 1
 2 593 l 1
EndSplineSet
Validated: 1
EndChar

StartChar: R
Encoding: 82 82 24
Width: 770
Flags: W
HStem: 264 278<0 771> 595 19<5 35.718 105.282 136 253.826 279 385.704 434.947 611.24 651.165 741.33 769> 630 20G<467.5 471> 706 25<348 440> 729 22<95 129> 805 24<367.927 423.731 604.812 657.452> 879 22<5 35.718 95 166.269> 901 19<645 672.671>
VStem: 46 49<619.144 729 751 875.856> 185 53<765.62 866.757> 299 48<640.661 706 731 785.387> 440 49<731 783.387> 532 48<635.71 783.761> 684 47<642.708 776.246 792 895.856>
LayerCount: 2
Fore
SplineSet
0 542 m 1xe4fc
 771 542 l 1
 771 264 l 1
 0 264 l 1
 0 542 l 1xe4fc
630 620 m 0
 651 620 664 627 672 642 c 0
 680 657 684 679 684 710 c 0
 684 739 680 761 672 777 c 0
 664 793 650 800 629 800 c 0
 611 800 599 793 591 777 c 0
 584 761 580 738 580 709 c 0
 580 679 584 657 591 642 c 0
 599 627 612 620 630 620 c 0
619 591 m 0
 591 591 569 600 554 619 c 0
 539 638 532 668 532 709 c 0
 532 750 539 781 554 800 c 0
 569 819 591 829 619 829 c 0
 635 829 649 826 659 819 c 0
 670 812 678 803 684 792 c 1
 687 792 l 1
 686 799 685 808 684 817 c 0
 684 826 684 834 684 841 c 2
 684 873 l 2
 684 885 680 893 673 896 c 0
 666 899 658 901 649 901 c 2
 645 901 l 1
 645 920 l 1
 731 920 l 1xe5fc
 731 644 l 2
 731 631 734 623 741 620 c 0
 748 617 757 614 766 614 c 2
 769 614 l 1
 769 595 l 1
 694 595 l 1
 687 632 l 1
 685 632 l 1
 678 619 670 609 660 602 c 0
 650 595 636 591 619 591 c 0
348 731 m 1xf4fc
 440 731 l 1
 440 753 437 771 430 784 c 0
 423 798 413 805 397 805 c 0
 382 805 370 799 362 786 c 0
 354 773 349 755 348 731 c 1xf4fc
401 591 m 0
 368 591 344 601 326 622 c 0
 308 643 299 671 299 708 c 0
 299 748 307 779 324 799 c 0
 341 819 366 829 397 829 c 0
 426 829 448 820 464 803 c 0
 481 786 489 760 489 726 c 2
 489 706 l 1
 347 706 l 1
 348 675 354 654 364 640 c 0
 375 626 389 619 409 619 c 0
 424 619 437 623 447 629 c 0
 458 635 465 642 470 650 c 0
 472 649 474 647 476 644 c 0
 478 641 479 638 479 634 c 0
 479 628 477 621 471 614 c 0
 466 607 457 603 445 598 c 0
 434 593 419 591 401 591 c 0
95 751 m 1xeefc
 124 751 l 2
 147 751 163 756 172 767 c 0
 181 778 185 794 185 816 c 0
 185 839 181 855 171 864 c 0
 162 874 146 879 123 879 c 2
 95 879 l 1
 95 751 l 1xeefc
5 595 m 1
 5 614 l 1
 14 614 l 2
 23 614 30 616 36 619 c 0
 42 622 46 630 46 642 c 2
 46 853 l 2
 46 865 42 873 36 876 c 0
 30 879 23 881 14 881 c 2
 5 881 l 1
 5 901 l 1
 126 901 l 2
 164 901 193 894 211 880 c 0
 230 866 238 846 238 819 c 0
 238 804 235 791 229 780 c 0
 223 770 215 762 206 755 c 0
 197 749 187 744 177 740 c 1
 233 649 l 2
 240 637 247 629 254 623 c 0
 261 617 268 614 277 614 c 2
 279 614 l 1
 279 595 l 1
 270 595 l 2
 252 595 239 596 229 598 c 0
 219 600 211 604 204 609 c 0
 197 615 190 623 184 634 c 2
 129 729 l 1
 95 729 l 1
 95 642 l 2
 95 630 99 622 105 619 c 0
 111 616 118 614 127 614 c 2
 136 614 l 1
 136 595 l 1
 5 595 l 1
EndSplineSet
Validated: 1
EndChar

StartChar: W
Encoding: 87 87 25
Width: 1237
Flags: W
HStem: 264 278<0 1238> 603 19<459 485.671 553.329 578 690.283 714 735 768.572 826.435 861 966.121 1013.81 1131.05 1184.33> 638 246G<929 955 1215.5 1219> 714 24<1096 1187> 806 19<875 904.772> 813 19<739 768.572> 873 56<776.236 815.763> 889 19<4 27.7649 94.8717 128 341 376.058 420.236 448> 908 20<459 490.859>
VStem: 496 47<627.19 786.388 799 898.81> 634 47<627.191 790.528> 775 47<632.19 811.734 880.19 922.81> 907 48<634.33 806> 931 24<850.545 884> 1046 49<647.662 714 738 792.387> 1187 49<738 791.386>
LayerCount: 2
Fore
SplineSet
0 542 m 1xc073
 1238 542 l 1
 1238 264 l 1
 0 264 l 1
 0 542 l 1xc073
1096 738 m 1xd073
 1187 738 l 1
 1187 760 1184 779 1177 792 c 0
 1170 806 1160 812 1144 812 c 0
 1129 812 1117 806 1109 793 c 0
 1101 780 1097 762 1096 738 c 1xd073
1149 598 m 0
 1116 598 1091 608 1073 629 c 0
 1055 650 1046 679 1046 716 c 0
 1046 756 1055 786 1072 806 c 0xd873
 1089 826 1113 837 1144 837 c 0
 1173 837 1196 828 1212 811 c 0
 1229 794 1236 768 1236 734 c 2
 1236 714 l 1
 1095 714 l 1
 1096 683 1101 661 1111 647 c 0
 1122 633 1136 627 1156 627 c 0
 1171 627 1184 630 1194 636 c 0
 1205 642 1213 650 1218 658 c 0
 1220 657 1221 655 1223 652 c 0
 1225 649 1226 646 1226 642 c 0
 1226 636 1224 629 1218 622 c 0
 1213 615 1204 610 1192 605 c 0
 1181 600 1167 598 1149 598 c 0
970 598 m 0
 949 598 933 603 923 613 c 0
 913 623 907 640 907 665 c 2
 907 806 l 1
 875 806 l 1
 875 825 l 1xc87b
 881 825 887 825 894 828 c 0
 901 831 906 835 911 840 c 0
 920 849 927 863 931 884 c 1
 955 884 l 1xe077
 955 832 l 1
 1010 832 l 1xc477
 1010 806 l 1
 955 806 l 1
 955 665 l 2xc87b
 955 651 958 641 963 634 c 0
 969 627 976 624 986 624 c 0
 991 624 996 624 1001 625 c 0
 1006 626 1010 626 1014 627 c 1
 1014 606 l 1
 1010 604 1004 603 996 601 c 0
 988 599 979 598 970 598 c 0
735 603 m 1
 735 622 l 1
 741 622 l 2
 747 622 752 623 757 624 c 0
 762 625 766 628 769 632 c 0
 772 636 775 642 775 650 c 2
 775 784 l 2
 775 792 772 799 769 803 c 0
 766 807 762 810 757 811 c 0
 752 812 747 813 741 813 c 2
 739 813 l 1
 739 832 l 1
 822 832 l 1xc473
 822 652 l 2
 822 643 823 636 826 632 c 0
 829 628 834 625 839 624 c 0
 844 623 849 622 855 622 c 2
 861 622 l 1
 861 603 l 1
 735 603 l 1
796 873 m 0xc273
 788 873 781 876 776 880 c 0
 771 884 769 891 769 901 c 0
 769 911 771 919 776 923 c 0
 781 927 788 929 796 929 c 0
 803 929 811 927 816 923 c 0
 822 919 824 911 824 901 c 0
 824 891 822 884 816 880 c 0
 811 876 803 873 796 873 c 0xc273
459 603 m 1
 459 622 l 1
 461 622 l 2
 471 622 479 624 486 627 c 0
 493 631 496 639 496 652 c 2
 496 880 l 2
 496 888 494 895 491 899 c 0
 488 903 484 905 479 906 c 0
 474 907 468 908 462 908 c 2
 459 908 l 1
 459 928 l 1
 543 928 l 1
 543 840 l 2
 543 834 543 829 542 822 c 0
 542 816 541 810 541 805 c 2
 541 799 l 1
 544 799 l 1
 551 813 559 822 570 828 c 0
 581 834 593 837 607 837 c 0
 631 837 649 829 662 816 c 0
 675 803 681 782 681 753 c 2
 681 653 l 2
 681 640 684 631 690 627 c 0
 696 624 704 622 713 622 c 2
 714 622 l 1
 714 603 l 1
 634 603 l 1
 634 748 l 2
 634 767 631 781 624 791 c 0
 618 801 607 807 591 807 c 0
 574 807 562 800 554 787 c 0
 547 774 543 758 543 738 c 2xd0f3
 543 650 l 2
 543 638 546 630 553 627 c 0
 560 624 568 622 577 622 c 2
 578 622 l 1
 578 603 l 1
 459 603 l 1
118 603 m 1
 39 866 l 2
 36 875 33 881 28 884 c 0
 23 887 17 889 9 889 c 2
 4 889 l 1
 4 908 l 1
 128 908 l 1
 128 889 l 1
 118 889 l 2
 101 889 92 882 92 868 c 0
 92 866 92 863 93 860 c 0
 94 857 95 853 96 850 c 2
 132 724 l 2
 136 712 140 699 143 686 c 0
 146 673 148 662 150 652 c 1
 152 663 154 674 157 686 c 0
 160 698 164 710 167 722 c 2
 219 905 l 1
 250 905 l 1
 305 726 l 2
 309 712 314 698 317 685 c 0
 320 672 322 661 324 652 c 1
 326 662 329 674 332 686 c 0
 335 698 337 711 341 725 c 2
 375 846 l 2
 376 849 377 853 378 858 c 0
 379 863 379 865 379 868 c 0
 379 882 370 889 351 889 c 2
 341 889 l 1
 341 908 l 1
 448 908 l 1
 448 889 l 1
 440 889 l 2xe173
 432 889 425 886 420 882 c 0
 415 878 411 869 407 855 c 2
 337 603 l 1
 295 603 l 1
 225 831 l 1
 160 603 l 1
 118 603 l 1
EndSplineSet
Validated: 1
EndChar

StartChar: Y
Encoding: 89 89 26
Width: 1375
Flags: W
HStem: 264 278<0 1376> 596 42<1119.58 1130.19 1266.81 1278.86> 596 19<71 106.717 175.283 211 355.309 408.579 487 520.572 578.435 612 625 658.572 716.428 750 851.772 912.159> 631 192G<439.5 443 1179.07 1219.83> 707 24<320 411> 806 24<340.313 395.653 848.953 915.038 1008 1027.81 1094.19 1119 1282 1311.3 1351.24 1375> 882 19<1 23.8118 96.1421 126 172 208.62 253.831 279> 901 20<487 520.859 625 658.859>
VStem: 116 50<620.144 718> 271 48<640.662 707 731 785.387> 411 50<731 784.386> 527 47<625.19 891.81> 664 47<625.19 891.81> 779 49<634.363 787.806> 937 48<633.839 787.309>
LayerCount: 2
Fore
SplineSet
71 596 m 1xa2fe
 71 615 l 1
 84 615 l 2
 93 615 101 617 107 620 c 0
 113 623 116 631 116 643 c 2
 116 718 l 1
 37 859 l 2
 32 867 28 874 24 877 c 0
 20 880 15 882 7 882 c 2
 1 882 l 1
 1 901 l 1
 126 901 l 1
 126 882 l 1
 112 882 l 2
 104 882 99 880 96 877 c 0
 93 874 92 870 92 866 c 0
 92 862 93 858 94 854 c 0
 96 850 97 847 99 844 c 2
 131 785 l 2
 136 776 140 767 143 759 c 0
 146 751 148 744 151 737 c 1
 154 743 157 751 162 760 c 0
 167 769 171 778 176 787 c 2
 203 837 l 2
 206 842 208 847 209 851 c 0
 210 856 211 860 211 863 c 0
 211 876 202 882 184 882 c 2
 172 882 l 1
 172 901 l 1
 279 901 l 1
 279 882 l 1
 273 882 l 2
 267 882 261 880 256 875 c 0
 251 870 245 861 238 848 c 2
 166 718 l 1
 166 644 l 2
 166 631 169 623 175 620 c 0
 181 617 189 615 198 615 c 2
 211 615 l 1
 211 596 l 1
 71 596 l 1xa2fe
373 591 m 0
 340 591 315 601 297 622 c 0
 279 643 271 672 271 709 c 0
 271 749 279 779 296 799 c 0
 313 819 338 830 369 830 c 0
 398 830 420 821 436 804 c 0
 453 787 461 761 461 727 c 2
 461 707 l 1
 319 707 l 1xacfe
 320 676 325 654 335 640 c 0
 346 626 361 620 381 620 c 0
 396 620 408 623 418 629 c 0
 429 635 437 643 442 651 c 0
 444 650 446 648 448 645 c 0
 450 642 451 639 451 635 c 0
 451 629 448 622 442 615 c 0
 437 608 429 603 417 598 c 0
 406 593 391 591 373 591 c 0
320 731 m 1
 411 731 l 1
 411 753 409 772 402 785 c 0
 395 799 384 805 368 805 c 0
 353 805 342 799 334 786 c 0
 326 773 321 755 320 731 c 1
487 596 m 1
 487 615 l 1
 493 615 l 2
 499 615 504 616 509 617 c 0
 514 618 518 621 521 625 c 0
 524 629 527 636 527 645 c 2
 527 873 l 2
 527 881 524 888 521 892 c 0
 518 896 514 898 509 899 c 0
 504 900 499 901 493 901 c 2
 487 901 l 1
 487 921 l 1
 574 921 l 1xa1fe
 574 645 l 2
 574 636 575 629 578 625 c 0
 581 621 586 618 591 617 c 0
 596 616 601 615 607 615 c 2
 612 615 l 1
 612 596 l 1
 487 596 l 1
625 596 m 1
 625 615 l 1
 630 615 l 2
 636 615 642 616 647 617 c 0
 652 618 656 621 659 625 c 0
 662 629 664 636 664 645 c 2
 664 873 l 2
 664 881 662 888 659 892 c 0
 656 896 652 898 647 899 c 0
 642 900 636 901 630 901 c 2
 625 901 l 1
 625 921 l 1
 711 921 l 1
 711 645 l 2
 711 636 713 629 716 625 c 0
 719 621 723 618 728 617 c 0
 733 616 739 615 745 615 c 2
 750 615 l 1
 750 596 l 1
 625 596 l 1
881 591 m 0
 849 591 825 601 807 621 c 0
 789 641 779 671 779 711 c 0
 779 751 788 781 805 800 c 0
 822 820 849 830 883 830 c 0x84fe
 915 830 940 820 958 800 c 0
 976 781 985 751 985 711 c 0
 985 671 976 641 958 621 c 0
 941 601 915 591 881 591 c 0
882 615 m 0xa4fe
 902 615 916 623 924 639 c 0
 932 655 937 680 937 711 c 0
 937 743 932 766 924 782 c 0
 916 798 902 806 882 806 c 0
 862 806 848 798 840 782 c 0
 832 766 828 743 828 711 c 0
 828 680 832 655 840 639 c 0
 848 623 862 615 882 615 c 0xa4fe
1095 596 m 1
 1039 783 l 2
 1036 792 1033 798 1028 801 c 0
 1024 804 1017 806 1009 806 c 2
 1008 806 l 1
 1008 825 l 1
 1119 825 l 1
 1119 806 l 1
 1113 806 l 2
 1104 806 1098 805 1094 802 c 0
 1090 800 1088 795 1088 788 c 0
 1088 786 1087 782 1088 779 c 0
 1089 776 1090 772 1091 769 c 2
 1110 702 l 2
 1112 695 1113 688 1115 680 c 0
 1117 672 1119 663 1120 656 c 0
 1121 649 1123 643 1124 638 c 1
 1125 638 l 1xc4fe
 1126 645 1129 655 1132 665 c 0
 1135 676 1138 685 1142 696 c 2
 1186 823 l 1
 1213 823 l 1x90fe
 1256 697 l 2
 1259 687 1262 676 1265 665 c 0
 1268 654 1271 645 1272 638 c 1
 1274 638 l 1xc0fe
 1277 652 1282 671 1289 696 c 2
 1309 763 l 2
 1310 767 1311 771 1312 775 c 0
 1313 779 1313 783 1313 785 c 0
 1313 799 1304 806 1285 806 c 2
 1282 806 l 1
 1282 825 l 1
 1375 825 l 1
 1375 806 l 1
 1370 806 l 2
 1362 806 1356 803 1351 799 c 0
 1347 795 1342 786 1338 772 c 2
 1283 596 l 1
 1245 596 l 1
 1190 764 l 1
 1132 596 l 1
 1095 596 l 1
0 542 m 1
 1376 542 l 1
 1376 264 l 1
 0 264 l 1
 0 542 l 1
EndSplineSet
Validated: 1
EndChar

StartChar: uni0080
Encoding: 128 128 27
Width: 1166
Flags: W
HStem: 264 278<0 1169> 584 19<0 44.5645 90.2727 193.984 300 344.163 392.373 494.273 694.411 781.299 916 956.564 1002 1111.37> 698 90G<538 556 1073.5 1087 1151.17 1169> 727 25<90 164 164.004 193.574 1002 1058.04> 785 21G<1076 1087 1142.5 1160> 867 18<0 43.3281 90.0963 182.589 300 345.094 391.54 439 572 614.658 660.699 707 777 814.521 853.032 886 916 956.886 1002.12 1107.55>
VStem: 45 45<603 727 752 867> 203 49<766.327 858.912> 218 49<614.51 712.521> 346 45<604.022 867> 543 13<674.83 698> 616 44<619.771 867> 822 21<637.056 858.524> 957 45<603 728 752 867> 1076 11<668 691.615 785.706 808> 1147 13<785 807.698> 1156 13<667 696>
LayerCount: 2
Fore
SplineSet
0 542 m 1xc67e80
 1169 542 l 1
 1169 264 l 1
 0 264 l 1
 0 542 l 1xc67e80
942 867 m 2
 916 867 l 1
 916 885 l 1
 1154 885 l 1
 1160 785 l 1
 1147 785 l 1
 1138 822 1127 863 1080 867 c 1
 1014 867 l 2
 1009 867 1002 862 1002 857 c 2
 1002 752 l 1
 1035 752 l 2xde7f
 1066 752 1071 787 1076 808 c 1
 1087 808 l 1
 1087 664 l 1
 1076 668 l 1
 1072 694 1064 725 1031 728 c 2
 1002 728 l 1
 1002 612 l 2
 1002 608 1009 603 1012 603 c 2
 1079 603 l 2
 1116 603 1141 635 1149 667 c 2
 1156 696 l 1
 1169 696 l 1
 1163 584 l 1
 916 584 l 1
 916 603 l 1
 944 603 l 2
 947 603 957 610 957 614 c 2
 957 857 l 2
 957 863 947 867 942 867 c 2
572 867 m 1
 572 885 l 1
 707 885 l 1
 707 867 l 1
 675 867 l 2
 667 867 660 863 660 853 c 2
 660 660 l 2
 660 620 702 604 736 604 c 0
 780 604 822 623 822 672 c 2
 822 825 l 2
 822 854 816 867 788 867 c 2
 777 867 l 1
 777 885 l 1
 886 885 l 1
 886 867 l 1
 859 867 843 860 843 829 c 2
 843 671 l 2
 843 609 787 578 731 578 c 0
 676 578 616 593 616 653 c 2
 616 853 l 2
 616 861 607 867 600 867 c 2
 572 867 l 1
300 867 m 1
 300 884 l 1
 439 884 l 1
 439 867 l 1
 403 867 l 2
 399 867 391 862 391 855 c 2
 391 619 l 2
 391 612 396 604 403 604 c 2
 468 604 l 2
 478 604 489 609 497 614 c 0
 531 634 533 664 543 698 c 1
 556 698 l 1xe67e
 549 584 l 1
 300 584 l 1
 300 603 l 1
 332 603 l 2
 339 603 346 612 346 619 c 2
 346 854 l 2
 346 861 338 867 332 867 c 2
 300 867 l 1
90 857 m 2
 90 752 l 1
 158 752 l 1
 192 758 203 780 203 813 c 0xd77e
 203 863 172 867 128 867 c 0
 123 867 111 867 110 867 c 0
 105 867 90 865 90 857 c 2
164 727 m 1
 90 727 l 1
 90 614 l 2
 90 609 98 603 103 603 c 2
 162 603 l 2
 200 603 218 631 218 665 c 0xd6fe
 218 697 202 716 171 725 c 0
 169 725 164 727 164 727 c 1
-0 885 m 1
 177 885 l 2
 217 885 252 853 252 814 c 0xc77e
 252 767 220 761 187 742 c 1
 231 727 267 715 267 665 c 0
 267 612 213 584 164 584 c 2
 -0 584 l 1
 -0 603 l 1
 32 603 l 2
 35 603 45 610 45 614 c 2
 45 852 l 2
 45 861 35 867 28 867 c 2
 -0 867 l 1
 -0 885 l 1
EndSplineSet
Validated: 1
EndChar

StartChar: uni0081
Encoding: 129 129 28
Width: 1752
Flags: W
HStem: 264 278<0 1754> 589 52<669.284 720.716> 589 35<1059 1130.82> 596 19<2 48.7286 93.338 181.796 326 369.967 414.653 462 504 545.824 599.932 636 865 910.922 958.501 1005 1165 1205.56 1251 1363.01 1465 1511.73 1556.25 1644.8> 641 67G<1132 1147 1322.5 1336 1400.17 1418> 738 25<958 1033.15 1251 1307.69> 797 21G<1323 1336 1391.5 1409> 879 17<2 47.1535 93.6752 185.208 326 368.531 416.502 462 500 532.062 588.015 622 865 910.641 959.134 1043.79 1165 1205.32 1251.57 1356.55 1465 1510.15 1556.68 1648.21>
VStem: 49 44<615 877.967> 239 50<657.859 834.979> 371 43<615 698 726 879> 669 52<589.284 640.716> 912 46<615 738 763 877.938> 1068 46<775.26 869.371> 1135 12<645 661> 1206 45<615.156 739 764 879> 1325 11<680 703.403 796.938 819> 1396 13<797 819.698> 1405 13<679 708> 1512 44<615.111 877.967> 1702 50<657.859 834.979>
LayerCount: 2
Fore
SplineSet
158 596 m 2x97ff98
 2 596 l 1
 2 615 l 1
 37 615 l 2
 41 615 49 621 49 626 c 2
 49 866 l 2
 49 871 40 879 35 879 c 2
 2 879 l 1
 2 896 l 1
 178 896 l 2
 189 896 202 893 212 888 c 0
 266 863 289 803 289 747 c 0
 289 667 247 596 158 596 c 2x97ff98
93 868 m 2
 93 626 l 2
 93 621 103 615 107 615 c 2
 155 615 l 2
 162 615 172 619 179 622 c 0
 233 647 239 685 239 742 c 0
 239 799 225 878 153 878 c 2
 108 878 l 2
 103 878 93 874 93 868 c 2
462 596 m 1
 326 596 l 1
 326 615 l 1
 358 615 l 2
 363 615 371 623 371 628 c 2
 371 864 l 2
 371 873 359 879 352 879 c 2
 326 879 l 1
 326 896 l 1
 462 896 l 1
 462 879 l 1
 430 879 l 2
 424 879 414 871 414 864 c 2
 414 726 l 1
 528 844 l 2
 532 848 536 854 536 860 c 0
 536 878 512 879 500 879 c 1
 500 896 l 1
 622 896 l 1
 622 879 l 1
 604 877 583 872 569 858 c 2
 491 777 l 1
 595 630 l 2
 604 617 616 615 636 614 c 1
 636 596 l 1
 504 596 l 1
 504 615 l 1
 531 615 l 2
 536 615 546 619 546 626 c 0
 546 627 544 630 544 630 c 1
 461 748 l 1
 414 698 l 1
 414 627 l 2
 414 622 422 615 427 615 c 2
 462 615 l 1
 462 596 l 1
669 615 m 0
 669 630 680 641 695 641 c 0xc7ff98
 710 641 721 630 721 615 c 0x97ff98
 721 600 710 589 695 589 c 0xc7ff98
 680 589 669 600 669 615 c 0
1005 596 m 1x97ff98
 865 596 l 1
 865 615 l 1
 897 615 l 2x97ff98
 906 615 912 622 912 630 c 2
 912 865 l 2
 912 873 904 879 897 879 c 2
 865 879 l 1
 865 896 l 1
 1042 896 l 2
 1082 896 1114 858 1114 819 c 0
 1114 780 1100 777 1092 771 c 0
 1070 755 1055 753 1023 748 c 1
 1048 740 1073 731 1081 703 c 2
 1100 642 l 2
 1102 635 1108 624 1116 624 c 0
 1125 624 1131 638 1132 645 c 2
 1135 661 l 1
 1147 661 l 1
 1147 629 1135 589 1097 589 c 0xa7ff98
 1021 589 1070 700 1020 730 c 0
 1014 733 1004 738 997 738 c 2
 958 738 l 1
 958 629 l 2
 958 620 963 615 969 615 c 2
 1005 615 l 1
 1005 596 l 1x97ff98
958 763 m 1
 1005 763 l 2
 1014 763 1028 767 1034 769 c 0
 1059 780 1068 791 1068 818 c 0
 1068 871 1041 878 995 878 c 2
 980 878 l 2
 975 878 958 876 958 867 c 2
 958 763 l 1
1191 879 m 2
 1165 879 l 1
 1165 897 l 1
 1403 897 l 1
 1409 797 l 1
 1396 797 l 1x9fffd8
 1387 834 1376 875 1329 879 c 1
 1263 879 l 2
 1258 879 1251 873 1251 868 c 2
 1251 764 l 1
 1284 764 l 2
 1315 764 1320 798 1325 819 c 1
 1336 819 l 1
 1336 680 l 1
 1325 680 l 1
 1321 706 1313 736 1280 739 c 2
 1251 739 l 1
 1251 624 l 2
 1251 620 1259 612 1261 612 c 2
 1328 612 l 2
 1365 612 1390 647 1398 679 c 2
 1405 708 l 1
 1418 708 l 1xafffb8
 1412 596 l 1
 1165 596 l 1
 1165 615 l 1
 1193 615 l 2
 1196 615 1206 622 1206 626 c 2
 1206 868 l 2
 1206 874 1196 879 1191 879 c 2
1621 596 m 2
 1465 596 l 1
 1465 615 l 1
 1500 615 l 2
 1504 615 1512 621 1512 626 c 2
 1512 866 l 2
 1512 871 1503 879 1498 879 c 2
 1465 879 l 1
 1465 896 l 1
 1641 896 l 2
 1652 896 1665 893 1675 888 c 0
 1729 863 1752 803 1752 747 c 0
 1752 667 1710 596 1621 596 c 2
1556 868 m 2
 1556 626 l 2
 1556 621 1566 612 1570 612 c 2
 1618 615 l 2
 1625 615 1635 619 1642 622 c 0
 1696 647 1702 685 1702 742 c 0
 1702 799 1688 878 1616 878 c 2
 1571 878 l 2
 1566 878 1556 874 1556 868 c 2
0 542 m 1
 1754 542 l 1
 1754 264 l 1
 0 264 l 1
 0 542 l 1
EndSplineSet
Validated: 1
EndChar

StartChar: uni0082
Encoding: 130 130 29
Width: 1525
Flags: W
HStem: 264 278<0 1526> 589 19<99.897 179.426> 596 19<317 363.282 409.593 456 617 657.564 703 811.622 917 957.564 1003 1112.37 1215 1241.21 1296.72 1328> 680 137G<229 250 775 788 843.5 861 1075 1088 1143.5 1162> 708 91G<584.143 599 774.5 788 852.172 870 1074.5 1088 1152.17 1170> 717 18<165 211.495 253 287> 738 25<409 485.146 703 759.686 1003 1032> 883 13<108.576 168.742 317 359.125 421.058 476.969 617 653.514 706.687 803.865 917 953.514 1006.69 1103.86 1215 1234.37 1424 1439.53 1510.2 1525>
VStem: 0 51<658.539 831.653> 212 41<625.456 717> 239 14<589 610.933 783 793.881> 364 45<615 738 763 877.856> 520 46<775.488 870.154> 587 12<640 661> 658 45<615 739 764 883> 777 11<680 703.403 796.938 819> 848 13<796 819.233> 857 13<679 708> 958 45<615 743 764 883> 1077 11<680 703.403 796.938 819> 1148 14<796 821.039> 1157 13<679 708> 1258 23<629.11 840> 1464 23<666 868.631>
LayerCount: 2
Fore
SplineSet
0 542 m 1x819f33
 1526 542 l 1
 1526 264 l 1
 0 264 l 1
 0 542 l 1x819f33
1215 596 m 1xa19f33
 1215 614 l 1
 1234 617 1258 630 1258 653 c 2
 1258 858 l 1
 1258 858 1249 867 1245 871 c 0
 1237 878 1224 879 1215 879 c 1
 1215 896 l 1
 1287 896 l 1
 1464 666 l 1
 1464 840 l 2
 1464 866 1446 879 1424 879 c 1
 1424 896 l 1
 1525 896 l 1
 1525 879 l 1
 1504 879 1487 866 1487 842 c 2
 1487 589 l 1
 1468 589 l 1xc19f33
 1281 840 l 1
 1281 654 l 2
 1281 626 1305 617 1328 614 c 1
 1328 596 l 1
 1215 596 l 1xa19f33
943 883 m 2
 917 883 l 1
 917 897 l 1
 1155 897 l 1
 1162 796 l 1
 1148 796 l 1
 1139 833 1128 879 1081 883 c 1
 1015 883 l 2
 1010 883 1003 873 1003 868 c 2
 1003 764 l 1
 1036 764 l 2
 1067 764 1072 798 1077 819 c 1
 1088 819 l 1
 1088 680 l 1
 1077 680 l 1xb19f3b
 1073 706 1065 736 1032 739 c 2
 1003 743 l 1
 1003 624 l 2
 1003 620 1011 615 1013 615 c 2
 1080 615 l 2
 1117 615 1142 647 1150 679 c 2
 1157 708 l 1
 1170 708 l 1
 1164 596 l 1
 917 596 l 1
 917 615 l 1
 945 615 l 2xa99f37
 948 615 958 622 958 626 c 2
 958 868 l 2
 958 874 948 883 943 883 c 2
643 883 m 2
 617 883 l 1
 617 897 l 1
 855 897 l 1
 861 796 l 1
 848 796 l 1
 839 833 828 879 781 883 c 1
 715 883 l 2
 710 883 703 873 703 868 c 2
 703 764 l 1
 736 764 l 2
 767 764 772 798 777 819 c 1
 788 819 l 1
 788 680 l 1
 777 680 l 1xb19fb3
 773 706 765 736 732 739 c 2
 703 739 l 1
 703 624 l 2
 703 620 711 615 713 615 c 2
 779 615 l 2
 816 615 842 647 850 679 c 2
 857 708 l 1
 870 708 l 1xa99f73
 864 596 l 1
 617 596 l 1
 617 615 l 1
 645 615 l 2
 648 615 658 622 658 626 c 2
 658 868 l 2
 658 874 648 883 643 883 c 2
409 763 m 1x839f33
 457 763 l 2
 466 763 480 767 486 769 c 0
 511 780 520 794 520 821 c 0
 520 874 492 878 446 878 c 2
 432 878 l 2
 427 878 409 876 409 867 c 2
 409 763 l 1x839f33
456 596 m 1xa39f33
 317 596 l 1
 317 615 l 1
 349 615 l 2xa39f33
 358 615 364 621 364 629 c 2
 364 864 l 2
 364 872 356 883 349 883 c 2
 317 883 l 1
 317 896 l 1
 493 896 l 2
 533 896 566 862 566 823 c 0
 566 784 552 777 544 771 c 0
 522 755 507 753 475 748 c 1
 500 740 525 731 533 703 c 2
 552 638 l 2
 554 631 560 620 568 620 c 0
 577 620 583 633 584 640 c 2
 587 661 l 1
 599 661 l 1
 599 629 587 589 549 589 c 0xc19f33
 473 589 522 700 472 730 c 0
 466 733 456 738 449 738 c 2
 409 738 l 1
 409 629 l 2
 409 620 415 615 421 615 c 2
 456 615 l 1
 456 596 l 1xa39f33
139 589 m 0xc9bf33
 51 589 0 662 0 744 c 0
 0 764 1 782 7 801 c 0
 26 856 76 902 136 902 c 0
 163 902 188 891 210 875 c 1
 229 902 l 1
 242 902 l 1
 250 783 l 1
 236 783 l 1
 222 829 196 882 140 882 c 0
 63 882 51 803 51 744 c 0
 51 683 62 608 138 608 c 0
 190 608 212 638 212 687 c 2
 212 707 l 2
 210 712 206 717 200 717 c 2
 165 717 l 1
 165 735 l 1
 287 735 l 1
 287 717 l 1
 264 717 l 2xc5df33
 263 717 253 715 253 708 c 2x89df33
 253 589 l 1
 239 589 l 1
 224 636 l 1
 223 637 l 1
 205 607 174 589 139 589 c 0xc9bf33
EndSplineSet
Validated: 1
EndChar

StartChar: uni0083
Encoding: 131 131 30
Width: 1836
Flags: W
HStem: 264 278<0 1838> 586 30<513.565 582.352> 592 15<94.7484 179.537 317 362.995 411.29 457 602 625.482 673.08 710 790 828.172 880.276 908 915 938.503 1000.08 1029 1580 1619.2 1666.38 1767.58> 689 20<692 797> 714 13<1428 1472.69 1516.93 1550> 738 18<410 485.18 1666 1717.62> 779 35G<1492 1513 1737 1751 1806.5 1824> 795 106G<584 599 742.938 772.826 1736.5 1751> 879 13<100.974 176.76 317 362.023 412.734 490.629 915 947.227 1124 1147.59 1204.63 1226 1363.77 1438.35 1580 1618.96 1667.62 1766.86>
VStem: 0 51<657.003 827.346> 225 52<655.904 823.698> 365 45<607 738 756 877.938> 521 46<767.964 868.749> 587 12<637 657> 960 19<623.344 836> 1168 17<658 861.52> 1263 51<655.969 827.53> 1475 41<619.745 714> 1502 14<586 609 779 789.95> 1621 45<608.025 739 756 879> 1739 12<676 702.8 789.551 815> 1811 13<793 816.126> 1820 13<675 704>
LayerCount: 2
Fore
SplineSet
0 542 m 1x9c7f98
 1838 542 l 1
 1838 264 l 1
 0 264 l 1
 0 542 l 1x9c7f98
1606 879 m 2xbcff9a
 1580 879 l 1
 1580 893 l 1
 1818 893 l 1
 1824 793 l 1
 1811 793 l 1
 1802 830 1791 875 1744 879 c 1
 1678 879 l 2
 1673 879 1666 873 1666 868 c 2
 1666 756 l 1
 1699 756 l 2
 1730 756 1734 794 1739 815 c 1
 1751 815 l 1
 1751 676 l 1
 1739 676 l 1
 1735 702 1728 736 1695 739 c 2
 1666 739 l 1
 1666 616 l 2xdcff9c
 1666 612 1673 608 1676 608 c 2
 1742 608 l 2
 1779 608 1805 643 1813 675 c 2
 1820 704 l 1
 1833 704 l 1
 1827 592 l 1
 1580 592 l 1
 1580 607 l 1
 1608 607 l 2
 1611 607 1621 614 1621 618 c 2
 1621 868 l 2
 1621 874 1611 879 1606 879 c 2xbcff9a
1402 586 m 0
 1314 586 1263 659 1263 741 c 0
 1263 761 1264 778 1270 797 c 0
 1289 852 1339 898 1399 898 c 0
 1426 898 1451 887 1473 871 c 1
 1492 898 l 1
 1505 898 l 1
 1513 779 l 1
 1499 779 l 1
 1485 825 1459 882 1403 882 c 0
 1326 882 1314 800 1314 741 c 0
 1314 680 1325 601 1401 601 c 0
 1453 601 1475 634 1475 683 c 2
 1475 703 l 2
 1473 708 1469 714 1463 714 c 2
 1428 714 l 1
 1428 727 l 1
 1550 727 l 1
 1550 714 l 1
 1527 714 l 2
 1526 714 1516 711 1516 704 c 2xde7fd8
 1516 586 l 1
 1502 586 l 1xde7fb8
 1488 632 l 1
 1486 633 l 1
 1468 603 1437 586 1402 586 c 0
915 592 m 1xbc7f98
 915 606 l 1
 934 609 960 622 960 645 c 2
 960 858 l 1
 960 858 952 868 948 872 c 0
 940 879 924 879 915 879 c 1
 915 892 l 1
 987 892 l 1
 1168 658 l 1
 1168 837 l 2
 1168 863 1146 879 1124 879 c 1
 1124 892 l 1
 1226 892 l 1
 1226 879 l 1
 1205 879 1185 862 1185 838 c 2
 1185 586 l 1
 1168 586 l 1xdcff98
 979 836 l 1
 979 647 l 2
 979 619 1006 609 1029 606 c 1
 1029 592 l 1
 915 592 l 1xbc7f98
692 709 m 1
 797 709 l 1
 745 840 l 1
 692 709 l 1
602 592 m 1xbd7f98
 602 606 l 1
 625 609 638 621 647 643 c 2
 751 901 l 1
 765 901 l 1
 873 625 l 2
 879 610 893 606 908 606 c 1
 908 592 l 1
 790 592 l 1
 790 606 l 1
 794 606 809 608 812 608 c 0
 819 609 830 611 830 620 c 0
 830 621 829 624 829 624 c 1
 804 689 l 1
 684 689 l 1
 668 647 l 2
 666 641 664 636 664 631 c 0
 664 609 695 606 710 606 c 1
 710 592 l 1
 602 592 l 1xbd7f98
410 756 m 1
 458 756 l 2
 467 756 481 759 487 761 c 0
 512 772 521 791 521 818 c 0
 521 871 493 878 447 878 c 2
 432 878 l 2
 427 878 410 876 410 867 c 2
 410 756 l 1
457 592 m 1
 317 592 l 1
 317 607 l 1
 350 607 l 2xbc7f98
 359 607 365 614 365 622 c 2
 365 865 l 2
 365 873 356 879 349 879 c 2
 317 879 l 1
 317 892 l 1
 494 892 l 2
 534 892 567 858 567 819 c 0
 567 780 552 769 544 763 c 0
 522 747 507 749 475 744 c 1
 500 736 525 727 533 699 c 2
 552 634 l 2
 554 627 561 616 569 616 c 0
 578 616 583 630 584 637 c 2
 587 657 l 1
 599 657 l 1
 599 625 588 586 550 586 c 0xdcff98
 474 586 522 700 472 730 c 0
 466 733 456 738 449 738 c 2
 410 738 l 1
 410 621 l 2
 410 612 416 607 422 607 c 2
 457 607 l 1
 457 592 l 1
51 743 m 0
 51 685 62 602 138 602 c 0
 211 602 225 685 225 743 c 0
 225 802 215 882 138 882 c 0
 64 882 51 800 51 743 c 0
136 586 m 0xdc7f98
 50 586 0 663 0 742 c 0
 0 821 50 898 136 898 c 0
 219 898 277 822 277 742 c 0
 277 658 226 586 136 586 c 0xdc7f98
EndSplineSet
Validated: 1
EndChar

StartChar: uni0084
Encoding: 132 132 31
Width: 1730
Flags: W
HStem: 264 278<0 1732> 587 30<818.038 886.932> 593 15<6 50.4946 97.676 149 411.006 477.943 622 666.995 716.098 762 922 967.495 1014.48 1066 1199 1242.16 1292.44 1389.5 1477 1515.38 1563.38 1664.42> 707 89G<889 904 1438 1456 1633.5 1648 1711.48 1730> 728 15<96 175.984 1013 1091.98> 739 18<715 790.146 1563 1614.62> 794 21G<1634 1648 1703.5 1721> 880 13<6 49.1122 99.5171 177.104 278 318.536 367.868 413 483 516.406 564.875 592 622 665.874 717.734 795.312 922 965.9 1016.39 1093.1 1199 1243.3 1291.8 1339 1477 1515.15 1564.4 1663.86>
VStem: 52 44<608 728 743 879.328> 210 47<757.56 866.976> 322 44<627.374 880> 528 21<644.367 869.309> 669 46<608 739 757 878.924> 825 46<768.424 870.113> 892 12<638 658> 969 44<608 728 743 879.415> 1126 47<757.56 866.976> 1246 44<609.129 880> 1443 13<683.274 707> 1517 46<609.025 740 757 880> 1636 12<677 703.8 790.551 816> 1708 13<794 817.126> 1717 13<679.625 705>
LayerCount: 2
Fore
SplineSet
0 542 m 1x81fff8
 1732 542 l 1
 1732 264 l 1
 0 264 l 1
 0 542 l 1x81fff8
1503 880 m 2
 1477 880 l 1
 1477 894 l 1
 1715 894 l 1
 1721 794 l 1
 1708 794 l 1
 1699 831 1688 876 1641 880 c 1
 1574 880 l 2
 1569 880 1563 874 1563 869 c 2
 1563 757 l 1
 1596 757 l 2
 1627 757 1631 795 1636 816 c 1
 1648 816 l 1
 1648 677 l 1
 1636 677 l 1
 1632 703 1625 737 1592 740 c 2
 1563 740 l 1
 1563 617 l 2xc7fffc
 1563 613 1570 609 1573 609 c 2
 1639 609 l 2
 1676 609 1701 644 1709 676 c 2
 1717 705 l 1
 1730 705 l 1
 1724 593 l 1
 1477 593 l 1
 1477 608 l 1
 1505 608 l 2xa1fffa
 1508 608 1517 615 1517 619 c 2
 1517 869 l 2
 1517 875 1508 880 1503 880 c 2
1199 880 m 1
 1199 893 l 1
 1339 893 l 1
 1339 880 l 1
 1302 880 l 2
 1298 880 1290 875 1290 868 c 2
 1290 624 l 2
 1290 617 1295 609 1302 609 c 2
 1367 609 l 2
 1377 609 1388 614 1396 619 c 0
 1430 639 1433 673 1443 707 c 1
 1456 707 l 1
 1448 593 l 1
 1199 593 l 1
 1199 608 l 1
 1231 608 l 2xb1fff8
 1238 608 1246 618 1246 625 c 2
 1246 867 l 2
 1246 874 1237 880 1231 880 c 2
 1199 880 l 1
1013 867 m 2
 1013 743 l 1
 1032 743 l 2x89fff8
 1089 743 1126 750 1126 814 c 0
 1126 867 1098 880 1048 880 c 0
 1040 880 1013 880 1013 867 c 2
922 593 m 1xa9fff8
 922 608 l 1
 955 608 l 2
 962 608 969 614 969 621 c 2
 969 867 l 2
 969 876 955 880 950 880 c 2
 922 880 l 1
 922 893 l 1
 1093 893 l 2
 1138 893 1173 855 1173 811 c 0
 1173 768 1155 751 1118 735 c 0
 1113 733 1095 728 1081 728 c 2
 1013 728 l 1
 1013 621 l 2
 1013 614 1020 608 1026 608 c 2
 1066 608 l 1
 1066 593 l 1
 922 593 l 1xa9fff8
715 757 m 1x85fff8
 762 757 l 2
 771 757 786 760 792 762 c 0
 817 773 825 792 825 819 c 0
 825 872 798 879 752 879 c 2
 737 879 l 2
 732 879 715 877 715 868 c 2
 715 757 l 1x85fff8
762 593 m 1xa5fff8
 622 593 l 1
 622 608 l 1
 654 608 l 2xa5fff8
 663 608 669 615 669 623 c 2
 669 865 l 2
 669 873 661 880 654 880 c 2
 622 880 l 1
 622 893 l 1
 799 893 l 2
 839 893 871 859 871 820 c 0
 871 781 857 770 849 764 c 0
 827 748 812 750 780 745 c 1
 805 737 830 728 838 700 c 2
 857 635 l 2
 859 628 865 617 873 617 c 0
 882 617 888 631 889 638 c 2
 892 658 l 1
 904 658 l 1
 904 626 892 587 854 587 c 0xc1fff8
 778 587 827 701 777 731 c 0
 771 734 761 739 754 739 c 2
 715 739 l 1
 715 622 l 2
 715 613 720 608 726 608 c 2
 762 608 l 1
 762 593 l 1xa5fff8
278 880 m 1
 278 893 l 1
 413 893 l 1
 413 880 l 1
 381 880 l 2
 373 880 366 876 366 866 c 2
 366 669 l 2
 366 629 408 610 442 610 c 0
 486 610 528 632 528 681 c 2
 528 834 l 2
 528 863 522 880 494 880 c 2
 483 880 l 1
 483 893 l 1
 592 893 l 1
 592 880 l 1
 565 880 549 869 549 838 c 2
 549 680 l 2
 549 618 493 587 437 587 c 0xc1fff8
 382 587 322 602 322 662 c 2
 322 865 l 2
 322 873 313 880 306 880 c 2
 278 880 l 1
96 867 m 2
 96 743 l 1
 116 743 l 2x89fff8
 173 743 210 750 210 814 c 0
 210 867 182 880 132 880 c 0
 124 880 96 880 96 867 c 2
6 593 m 1xa9fff8
 6 608 l 1
 38 608 l 2
 45 608 52 614 52 621 c 2
 52 867 l 2
 52 876 39 880 34 880 c 2
 6 880 l 1
 6 893 l 1
 177 893 l 2
 222 893 257 855 257 811 c 0
 257 768 239 751 202 735 c 0
 197 733 179 728 165 728 c 2
 96 728 l 1
 96 621 l 2
 96 614 104 608 110 608 c 2
 149 608 l 1
 149 593 l 1
 6 593 l 1xa9fff8
EndSplineSet
Validated: 1
EndChar

StartChar: uni0085
Encoding: 133 133 32
Width: 890
Flags: W
HStem: 264 278<0 891> 589 30<198.565 267.352> 595 15<2 47.9949 96.2903 142 303 341.202 389.436 490.422 603 647.975 695.469 778.001> 707 91G<269 284 459.5 474 537.172 556> 741 18<95 170.18 389 440.625> 796 21G<460 474 529.5 547> 882 13<2 46.5358 97.7344 175.629 303 341.153 390.403 489.865 603 645.994 696.039 781.003>
VStem: 50 45<610 741 759 880.924> 206 46<770.964 871.749> 272 12<640 660> 343 46<611.025 742 759 882> 462 12<679 705.8 792.551 818> 534 13<796 819.126> 542 14<678 707> 649 45<611.016 880.967> 839 50<656.613 833.98>
LayerCount: 2
Fore
SplineSet
0 542 m 1x83f3
 891 542 l 1
 891 264 l 1
 0 264 l 1
 0 542 l 1x83f3
694 871 m 2
 694 621 l 2
 694 616 703 611 707 611 c 2
 755 611 l 2
 762 611 773 614 780 617 c 0
 834 642 839 685 839 742 c 0
 839 799 826 881 754 881 c 2
 709 881 l 2
 704 881 694 877 694 871 c 2
758 595 m 2xa3f3
 603 595 l 1
 603 610 l 1
 638 610 l 2
 642 610 649 616 649 621 c 2
 649 869 l 2
 649 874 641 882 636 882 c 2
 603 882 l 1
 603 895 l 1
 779 895 l 2
 790 895 802 892 812 887 c 0
 866 862 889 802 889 746 c 0
 889 666 847 595 758 595 c 2xa3f3
329 882 m 2
 303 882 l 1
 303 896 l 1
 541 896 l 1
 547 796 l 1
 534 796 l 1
 525 833 514 878 467 882 c 1
 400 882 l 2
 395 882 389 876 389 871 c 2
 389 759 l 1
 422 759 l 2xaffb
 453 759 457 797 462 818 c 1
 474 818 l 1
 474 679 l 1
 462 679 l 1
 458 705 451 739 418 742 c 2
 389 742 l 1
 389 619 l 2
 389 615 397 611 399 611 c 2
 465 611 l 2
 502 611 527 646 535 678 c 2
 542 707 l 1
 556 707 l 1xd3f7
 550 595 l 1
 303 595 l 1
 303 610 l 1
 330 610 l 2
 333 610 343 617 343 621 c 2
 343 871 l 2
 343 877 334 882 329 882 c 2
95 759 m 1
 143 759 l 2
 152 759 166 762 172 764 c 0
 197 775 206 794 206 821 c 0
 206 874 178 881 132 881 c 2
 117 881 l 2
 112 881 95 879 95 870 c 2
 95 759 l 1
142 595 m 1
 2 595 l 1
 2 610 l 1
 35 610 l 2xabf3
 44 610 50 617 50 625 c 2
 50 867 l 2
 50 875 41 882 34 882 c 2
 2 882 l 1
 2 895 l 1
 179 895 l 2
 219 895 252 861 252 822 c 0
 252 783 237 772 229 766 c 0
 207 750 192 752 160 747 c 1
 185 739 211 730 219 702 c 2
 237 637 l 2
 239 630 246 619 254 619 c 0
 263 619 268 633 269 640 c 2
 272 660 l 1
 284 660 l 1
 284 628 273 589 235 589 c 0xc3f3
 159 589 207 703 157 733 c 0
 151 736 142 741 135 741 c 2
 95 741 l 1
 95 624 l 2
 95 615 101 610 107 610 c 2
 142 610 l 1
 142 595 l 1
EndSplineSet
Validated: 1
EndChar

StartChar: uni0086
Encoding: 134 134 33
Width: 1469
Flags: W
HStem: 264 278<0 1470> 591 16<420 460.509 508.093 548 601 640.513 688.359 728 770 815.88 861.142 908 990 1037.21 1082.83 1129 1213 1253.2 1299.2 1404.26> 704 91G<1370.5 1384 1448.33 1466> 738 22<506 642 1299 1353.15> 780 33G<932 949.5 1171 1189 1371 1384 1439.5 1457> 879 12<2 20.5955 71.0146 99 135 168.094 230.302 260 303 325.44 376.999 395 420 457.874 511.116 549 601 637.474 690.852 728 770 813.625 864.957 908 993.76 1033.51 1087.47 1127.23 1213 1251.53 1301.12 1398.22>
VStem: 461 45<607 738 760 878.703> 642 45<607.049 738 760 878.643> 817 43<607 878.936> 932 14<780 809.428> 1038 44<607 878.993> 1174 15<780 814.005> 1254 45<607 739 756 879> 1373 11<676 700.251 792.01 815> 1444 13<792 815.233> 1453 13<674 704>
LayerCount: 2
Fore
SplineSet
0 542 m 1xc7fc
 1470 542 l 1
 1470 264 l 1
 0 264 l 1
 0 542 l 1xc7fc
1239 879 m 2
 1213 879 l 1
 1213 892 l 1
 1451 892 l 1
 1457 792 l 1
 1444 792 l 1xe7fe
 1435 829 1424 875 1377 879 c 1
 1311 879 l 2
 1306 879 1299 873 1299 868 c 2
 1299 756 l 1
 1332 756 l 2
 1363 756 1368 794 1373 815 c 1
 1384 815 l 1
 1384 676 l 1
 1373 676 l 1
 1369 702 1361 736 1328 739 c 2
 1299 739 l 1
 1299 616 l 2
 1299 612 1307 607 1309 607 c 2
 1376 607 l 2
 1413 607 1438 642 1446 674 c 2
 1453 704 l 1
 1466 704 l 1xe7fd
 1460 591 l 1
 1213 591 l 1
 1213 607 l 1
 1241 607 l 2
 1244 607 1254 613 1254 617 c 2
 1254 868 l 2
 1254 874 1244 879 1239 879 c 2
946 780 m 1xcffc
 932 780 l 1
 939 891 l 1
 1183 891 l 1
 1189 780 l 1
 1174 780 l 1
 1168 819 1152 879 1103 879 c 0
 1087 879 1082 870 1082 848 c 2
 1082 619 l 2
 1082 614 1086 607 1093 607 c 2
 1129 607 l 1
 1129 591 l 1
 990 591 l 1
 990 607 l 1
 1027 607 l 2
 1032 607 1038 612 1038 619 c 2
 1038 848 l 2
 1038 870 1035 879 1018 879 c 0
 969 879 953 818 946 780 c 1xcffc
798 879 m 2
 770 879 l 1
 770 891 l 1
 908 891 l 1
 908 879 l 1
 884 879 l 2
 874 879 860 877 860 859 c 2
 860 620 l 2
 860 614 865 607 873 607 c 2
 908 607 l 1
 908 591 l 1
 770 591 l 1
 770 607 l 1
 805 607 l 2
 812 607 817 614 817 620 c 2
 817 859 l 2
 817 877 808 879 798 879 c 2
420 879 m 1
 420 892 l 1
 549 892 l 1
 549 879 l 1
 536 879 l 2
 521 879 506 877 506 860 c 2
 506 760 l 1
 642 760 l 1
 642 865 l 2
 642 874 629 879 614 879 c 2
 601 879 l 1
 601 892 l 1
 728 892 l 1
 728 879 l 1
 706 879 l 2
 694 879 687 871 687 864 c 2
 687 620 l 2
 687 612 695 608 702 607 c 0
 706 607 724 607 728 607 c 1
 728 591 l 1
 601 591 l 1
 601 607 l 1
 629 607 l 2
 634 607 642 614 642 619 c 2
 642 738 l 1
 506 738 l 1xd7fc
 506 622 l 2
 506 616 512 607 519 607 c 2
 548 607 l 1
 548 591 l 1
 420 591 l 1
 420 607 l 1
 451 607 l 2
 455 607 461 613 461 617 c 2
 461 865 l 2
 461 873 453 879 446 879 c 2
 420 879 l 1
2 891 m 1
 99 891 l 1
 99 878 l 1
 87 878 l 2
 78 878 64 874 69 862 c 2
 132 664 l 1
 186 836 l 1
 177 862 l 2
 171.272727273 876.727272727 157.512396694 878.066115702 143.934635612 878.066115702 c 0
 140.917355372 878.066115702 137.909090909 878 135 878 c 1
 135 891 l 1
 260 891 l 1
 260 878 l 1
 239.805172991 878 221.923187406 874.916211433 221.923187406 859.271763942 c 0
 221.923187406 857.098663794 222.268215742 854.683208947 223 852 c 2
 283 662 l 1
 336 842 l 2
 336.895313644 845.730473516 337.323035151 849.149218941 337.323035151 852.266203931 c 0
 337.323035151 870.037887479 323.418745425 878 303 878 c 1
 303 891 l 1
 395 891 l 1
 395 878 l 1
 374 877 364 864 359 847 c 2
 280 585 l 1
 266 585 l 1
 196 802 l 1
 130 585 l 1
 115 585 l 1
 29 857 l 2
 23 878 14 878 2 878 c 1
 2 891 l 1
EndSplineSet
Validated: 1
EndChar

StartChar: uni0087
Encoding: 135 135 34
Width: 1870
Flags: W
HStem: 264 278<0 1872> 589 228G<466 480 535.5 553 1583.6 1610.99 1734.46 1760.11> 596 15<83 129.279 176.023 221 309 348.202 395.307 498.025 609 652.16 702.444 799.5 886 929.16 979.444 1076.5 1266.01 1349.08> 710 89G<465.5 480 544.172 562 847 865 1124 1143> 743 17<395 444.761> 882.066 13.9339<0 26.9684 85.7927 129 182 212.406 260.23 294 309 349.044 395.791 497.47 609 654.32 701.468 748 886 931.32 978.468 1026 1268.03 1349.67 1477 1496.73 1544.37 1574 1610 1645.89 1701.63 1734 1778 1803.92 1849.45 1870>
VStem: 130 45<611 720> 350 45<611 743 760 883> 468 12<680 706.8 793.551 819> 540 13<796 819.233> 549 13<679 708> 656 44<612.129 883> 852 13<686.274 710> 933 44<612.129 883> 1129 14<684.719 710> 1170 51<659.445 831.346> 1395 52<659.904 827.698>
LayerCount: 2
Fore
SplineSet
-0 896 m 1xa79f80
 129 896 l 1
 129 882 l 1
 107 882 l 2
 97 882 81 877 85 870 c 0
 162.423226401 747.494894934 163.008048875 745.049796006 163.000551066 745.000993886 c 1
 219 846 l 2
 221.782179331 850.968177377 223.024152788 855.383460337 223.024152788 859.269393546 c 0
 223.024152788 874.93757905 202.833095528 882 182 882 c 1
 182 896 l 1
 294 896 l 1
 294 882 l 1
 275 882 l 2
 259 882 250 861 243 846 c 2
 175 722 l 1
 175 622 l 2
 175 616 183 611 187 611 c 2
 221 611 l 1
 221 596 l 1
 83 596 l 1
 83 611 l 1
 118 611 l 2
 121 611 130 616 130 621 c 2
 130 720 l 1
 39 862 l 2
 27 880 17 882 -0 882 c 1
 -0 896 l 1xa79f80
335 883 m 2
 309 883 l 1
 309 897 l 1
 547 897 l 1
 553 796 l 1
 540 796 l 1xafdf80
 531 833 520 879 473 883 c 1
 407 883 l 2
 402 883 395 877 395 872 c 2
 395 760 l 1
 428 760 l 2
 459 760 463 798 468 819 c 1
 480 819 l 1
 480 680 l 1
 468 680 l 1
 464 706 457 740 424 743 c 2
 395 743 l 1
 395 620 l 2
 395 616 402 611 405 611 c 2
 471 611 l 2
 508 611 534 647 542 679 c 2
 549 708 l 1
 562 708 l 1xafbf80
 556 596 l 1
 309 596 l 1
 309 611 l 1
 337 611 l 2
 340 611 350 618 350 622 c 2
 350 872 l 2
 350 878 340 883 335 883 c 2
609 883 m 1
 609 896 l 1
 748 896 l 1
 748 883 l 1
 712 883 l 2
 708 883 700 877 700 870 c 2
 700 627 l 2
 700 620 705 612 712 612 c 2
 777 612 l 2
 787 612 798 617 806 622 c 0
 840 642 842 676 852 710 c 1
 865 710 l 1xb79f80
 858 596 l 1
 609 596 l 1
 609 611 l 1
 641 611 l 2
 648 611 656 621 656 628 c 2
 656 870 l 2
 656 877 647 883 641 883 c 2
 609 883 l 1
886 883 m 1
 886 896 l 1
 1026 896 l 1
 1026 883 l 1
 989 883 l 2
 985 883 977 877 977 870 c 2
 977 627 l 2
 977 620 982 612 989 612 c 2
 1054 612 l 2
 1064 612 1075 617 1083 622 c 0
 1117 642 1119 676 1129 710 c 1
 1143 710 l 1
 1135 596 l 1
 886 596 l 1
 886 611 l 1
 918 611 l 2
 925 611 933 621 933 628 c 2
 933 870 l 2
 933 877 924 883 918 883 c 2
 886 883 l 1
1305 590 m 0
 1219 590 1170 667 1170 746 c 0
 1170 825 1220 902 1306 902 c 0
 1389 902 1447 826 1447 746 c 0
 1447 662 1395 590 1305 590 c 0
1221 747 m 0
 1221 689 1232 606 1308 606 c 0
 1381 606 1395 689 1395 747 c 0
 1395 806 1385 886 1308 886 c 0
 1234 886 1221 804 1221 747 c 0
1477 896 m 1
 1574 896 l 1
 1574 882 l 1
 1562 882 l 2
 1553 882 1539 878 1544 866 c 2
 1607 668 l 1
 1661 840 l 1
 1652 866 l 2
 1646.27272727 880.727272727 1632.51239669 882.066115702 1618.93463561 882.066115702 c 0
 1615.91735537 882.066115702 1612.90909091 882 1610 882 c 1
 1610 896 l 1
 1734 896 l 1
 1734 882 l 1
 1713.80517299 882 1695.92318741 878.916211433 1695.92318741 863.271763942 c 0
 1695.92318741 861.098663794 1696.26821574 858.683208947 1697 856 c 2
 1757 667 l 1
 1811 847 l 2
 1811.89531364 850.730473516 1812.32303515 854.126952648 1812.32303515 857.20605016 c 0
 1812.32303515 874.76171589 1798.41874542 882 1778 882 c 1
 1778 896 l 1
 1870 896 l 1
 1870 882 l 1
 1849 881 1839 868 1834 851 c 2
 1754 589 l 1
 1741 589 l 1
 1670 806 l 1
 1605 589 l 1
 1590 589 l 1xc79f80
 1503 861 l 2
 1497 882 1489 882 1477 882 c 1
 1477 896 l 1
0 542 m 1
 1872 542 l 1
 1872 264 l 1
 0 264 l 1
 0 542 l 1
EndSplineSet
Validated: 33
EndChar

StartChar: uni0088
Encoding: 136 136 35
Width: 907
Flags: W
HStem: 264 278<0 908> 590 25<28 143.897 282 419 470.977 577.472 728 895> 732 25<28 134.266 728 878> 863 25<28 132.89 728 895>
VStem: 0 28<616 732 757 862> 151 28<772.456 847.033> 166 28<634.017 714.757> 254 28<615 888> 418 28<639.691 888> 603 28<640.488 888> 700 28<615 729 754 863>
LayerCount: 2
Fore
SplineSet
0 590 m 1xfbe0
 0 888 l 1
 90 888 l 2
 118 888 139 881 155 868 c 0
 171 855 179 837 179 814 c 0
 179 798 175 784 168 773 c 0
 161 762 151 754 138 748 c 1
 156 744 170 735 179 722 c 0xfde0
 189 709 194 692 194 672 c 0
 194 645 186 625 169 611 c 0
 153 597 130 590 99 590 c 2
 0 590 l 1xfbe0
28 616 m 1
 97 616 l 2
 143 616 166 635 166 674 c 0xfbe0
 166 692 161 706 151 716 c 0
 141 726 126 732 108 732 c 2
 28 732 l 1
 28 616 l 1
28 757 m 1
 98 757 l 2
 114 757 127 761 136 771 c 0
 146 781 151 794 151 810 c 0xfde0
 151 827 146 840 135 849 c 0
 124 858 109 862 90 862 c 2
 28 862 l 1
 28 757 l 1
254 590 m 1
 254 888 l 1
 282 888 l 1
 282 615 l 1
 419 615 l 1
 419 590 l 1
 254 590 l 1
524 586 m 0
 490 586 463 595 445 614 c 0
 427 633 418 662 418 698 c 2
 418 888 l 1
 446 888 l 1
 446 701 l 2
 446 682 449 664 454 651 c 0
 459 638 468 628 479 621 c 0
 491 614 506 611 524 611 c 0
 542 611 557 614 569 621 c 0
 581 628 590 639 595 652 c 0
 601 665 603 682 603 701 c 2
 603 888 l 1
 631 888 l 1
 631 700 l 2
 631 663 621 634 603 615 c 0
 585 596 559 586 524 586 c 0
700 590 m 1
 700 888 l 1
 895 888 l 1
 895 863 l 1
 728 863 l 1
 728 754 l 1
 878 754 l 1
 878 729 l 1
 728 729 l 1
 728 615 l 1
 895 615 l 1
 895 590 l 1
 700 590 l 1
0 542 m 1
 908 542 l 1
 908 264 l 1
 0 264 l 1
 0 542 l 1
EndSplineSet
Validated: 1
EndChar

StartChar: uni0089
Encoding: 137 137 36
Width: 1509
Flags: W
HStem: 264 278<0 1509> 595 46<559 588> 595 26<28 145.125 1056 1223 1306 1423.12> 729 24<803 866 1056 1206> 757 20G<376.952 408.527> 868 25<28 142.484 803 907.232 1056 1223 1306 1420.48>
VStem: 0 28<621 868> 204 28<675.716 810.591> 292 28<595 893> 559 29<595 641> 775 28<595 729 753 868> 929 28<771.828 846.669> 1028 28<620 734 759 868> 1278 28<621 868> 1482 28<675.716 810.591>
LayerCount: 2
Fore
SplineSet
292 595 m 1xbffe
 292 893 l 1
 320 893 l 1
 320 735 l 1
 320 699 l 1
 376 756 l 1
 396 777 l 1
 510 595 l 1
 477 595 l 1
 376 756 l 1
 396 777 l 1
 509 893 l 1
 471 893 l 1
 320 735 l 1
 320 699 l 1
 320 595 l 1
 292 595 l 1xbffe
559 595 m 1xdffe
 559 641 l 1
 588 641 l 1
 588 595 l 1
 559 595 l 1xdffe
0 542 m 1
 1509 542 l 1
 1509 264 l 1
 0 264 l 1
 0 542 l 1
28 621 m 1xbffe
 77 621 l 2
 104 621 127 625 146 634 c 0
 165 643 179 655 189 673 c 0
 199 691 204 715 204 743 c 0
 204 771 199 794 189 813 c 0
 179 832 166 845 147 854 c 0
 128 863 107 868 80 868 c 2
 28 868 l 1
 28 621 l 1xbffe
0 595 m 1
 0 893 l 1
 80 893 l 2
 128 893 166 880 192 853 c 0
 219 827 232 790 232 742 c 0
 232 695 219 658 193 633 c 0
 167 608 129 595 80 595 c 2
 0 595 l 1
803 753 m 1
 856 753 l 2
 871 753 884 755 895 759 c 0
 906 763 914 769 920 778 c 0
 926 787 929 798 929 811 c 0
 929 824 926 835 920 844 c 0
 914 853 905 858 894 862 c 0
 883 866 871 868 856 868 c 2
 803 868 l 1
 803 753 l 1
775 595 m 1
 775 893 l 1
 858 893 l 2
 880 893 898 890 913 883 c 0
 928 876 939 867 946 855 c 0
 953 843 957 828 957 811 c 0
 957 787 950 768 936 754 c 0
 926 744 913 737 896 733 c 1
 976 595 l 1
 944 595 l 1
 866 729 l 2
 864 729 863 729 861 729 c 0
 853 729 852 729 846 729 c 2
 803 729 l 1
 803 595 l 1
 775 595 l 1
1306 621 m 1
 1355 621 l 2
 1382 621 1405 625 1424 634 c 0
 1443 643 1457 655 1467 673 c 0
 1477 691 1482 715 1482 743 c 0
 1482 771 1477 794 1467 813 c 0
 1457 832 1444 845 1425 854 c 0
 1406 863 1384 868 1357 868 c 2
 1306 868 l 1
 1306 621 l 1
1278 595 m 1
 1278 893 l 1
 1358 893 l 2
 1406 893 1444 880 1470 853 c 0
 1497 827 1510 790 1510 742 c 0
 1510 695 1497 658 1471 633 c 0
 1445 608 1407 595 1358 595 c 2
 1278 595 l 1
1028 595 m 1
 1028 893 l 1
 1223 893 l 1
 1223 868 l 1
 1056 868 l 1
 1056 759 l 1
 1206 759 l 1
 1206 734 l 1
 1056 734 l 1
 1056 620 l 1
 1223 620 l 1
 1223 595 l 1
 1028 595 l 1
EndSplineSet
Validated: 5
EndChar

StartChar: uni008A
Encoding: 138 138 37
Width: 1294
Flags: W
HStem: 264 278<0 1296> 593 25<81.5781 193.811 607 775 857 1024> 722 24<158 234> 732 25<354 417 607 757 857 1007> 805 21G<229 259> 866 25<81.3858 194.528 354 459.198 607 775 857 1024>
VStem: 2 28<673.222 811.846> 234 25<593 643 659.004 722> 326 28<593 727 751 866> 480 28<769.828 847.905> 580 27<618 732 757 866> 829 28<618 732 757 866> 1079 28<593 846> 1264 28<638 891>
LayerCount: 2
Fore
SplineSet
580 593 m 1xdffc
 580 891 l 1
 775 891 l 1
 775 866 l 1
 607 866 l 1
 607 757 l 1
 757 757 l 1
 757 732 l 1
 607 732 l 1
 607 618 l 1
 775 618 l 1
 775 593 l 1
 580 593 l 1xdffc
1079 593 m 1
 1079 891 l 1
 1109 891 l 1
 1264 638 l 1
 1264 891 l 1
 1292 891 l 1
 1292 593 l 1
 1261 593 l 1
 1107 846 l 1
 1107 593 l 1
 1079 593 l 1
0 542 m 1
 1296 542 l 1
 1296 264 l 1
 0 264 l 1
 0 542 l 1
136 589 m 0
 109 589 86 595 66 608 c 0
 46 621 30 638 19 661 c 0
 8 684 2 711 2 742 c 0
 2 773 8 800 19 823 c 0
 30 846 46 863 66 876 c 0
 87 889 111 896 138 896 c 0
 167 896 192 889 213 874 c 0
 234 860 250 839 259 814 c 1
 233 805 l 1
 225 825 214 841 197 852 c 0
 181 863 161 869 138 869 c 0
 116 869 96 863 80 853 c 0
 64 843 52 829 43 810 c 0
 34 791 30 768 30 742 c 0
 30 716 34 694 43 675 c 0
 52 656 64 641 80 631 c 0
 96 621 116 616 138 616 c 0
 149 616 160 617 171 620 c 0
 182 623 193 629 202 636 c 0
 212 643 219 653 225 666 c 0
 231 679 234 696 234 716 c 2
 234 722 l 1
 158 722 l 1
 158 746 l 1
 259 746 l 1xeffc
 259 593 l 1
 234 593 l 1
 232 643 l 1
 227 632 221 623 213 616 c 0
 203 607 190 599 177 595 c 0
 164 591 151 589 136 589 c 0
829 593 m 1
 829 891 l 1
 1024 891 l 1
 1024 866 l 1
 857 866 l 1
 857 757 l 1
 1007 757 l 1
 1007 732 l 1
 857 732 l 1xdffc
 857 618 l 1
 1024 618 l 1
 1024 593 l 1
 829 593 l 1
326 593 m 1
 326 891 l 1
 410 891 l 2
 432 891 450 888 465 881 c 0
 480 874 490 865 497 853 c 0
 504 841 508 826 508 809 c 0
 508 785 502 766 488 752 c 0
 478 742 464 735 447 731 c 1
 527 593 l 1
 495 593 l 1
 417 727 l 2
 415 727 414 727 412 727 c 0
 404 727 404 727 398 727 c 2
 354 727 l 1
 354 593 l 1
 326 593 l 1
354 751 m 1
 407 751 l 2
 422 751 435 753 446 757 c 0
 457 761 465 767 471 776 c 0
 477 785 480 796 480 809 c 0
 480 822 477 833 471 842 c 0
 465 851 457 856 446 860 c 0
 435 864 422 866 407 866 c 2
 354 866 l 1
 354 751 l 1
EndSplineSet
Validated: 1
EndChar

StartChar: uni008B
Encoding: 139 139 38
Width: 1646
Flags: W
HStem: 264 278<0 1647> 591 25<81.3149 193.82 1201.59 1313.96 1474 1641> 719 25<1278 1354> 725 24<360 423 1474 1624> 802 21G<1349 1379> 864 25<81.3149 193.82 360 465.198 1201.31 1311.66 1474 1641>
VStem: 2 27<674.729 806.348> 245 28<671.222 808.778> 333 27<591 725 749 864> 486 28<767.828 845.905> 849 28<591 844> 1034 27<636 889> 1122 27<674.729 806.348> 1354 25<591 641 657.004 719> 1446 28<616 730 755 864>
LayerCount: 2
Fore
SplineSet
0 542 m 1xcffe
 1647 542 l 1
 1647 264 l 1
 0 264 l 1
 0 542 l 1xcffe
1446 591 m 1
 1446 889 l 1
 1641 889 l 1
 1641 864 l 1
 1474 864 l 1
 1474 755 l 1
 1624 755 l 1
 1624 730 l 1
 1474 730 l 1
 1474 616 l 1
 1641 616 l 1
 1641 591 l 1
 1446 591 l 1
1255 587 m 0
 1228 587 1205 593 1185 606 c 0
 1165 619 1149 636 1138 659 c 0
 1127 682 1122 709 1122 740 c 0
 1122 771 1127 798 1138 821 c 0
 1149 844 1166 861 1186 874 c 0
 1207 887 1230 894 1257 894 c 0
 1286 894 1311 887 1332 872 c 0
 1353 858 1370 837 1379 812 c 1
 1353 802 l 1
 1345 822 1333 838 1316 849 c 0
 1300 860 1280 867 1257 867 c 0
 1235 867 1216 861 1200 851 c 0
 1184 841 1172 827 1163 808 c 0
 1154 789 1149 766 1149 740 c 0
 1149 714 1154 692 1163 673 c 0
 1172 654 1184 639 1200 629 c 0
 1216 619 1235 614 1257 614 c 0
 1268 614 1280 615 1291 618 c 0
 1302 621 1313 627 1322 634 c 0
 1332 641 1339 651 1345 664 c 0
 1351 677 1354 694 1354 714 c 2
 1354 719 l 1
 1278 719 l 1
 1278 744 l 1
 1379 744 l 1xeffe
 1379 591 l 1
 1354 591 l 1
 1351 641 l 1
 1346 630 1340 621 1332 614 c 0
 1322 605 1310 597 1297 593 c 0
 1284 589 1270 587 1255 587 c 0
849 591 m 1
 849 889 l 1
 879 889 l 1
 1034 636 l 1
 1034 889 l 1
 1061 889 l 1
 1061 591 l 1
 1031 591 l 1
 877 844 l 1
 877 591 l 1
 849 591 l 1
559 591 m 1
 669 889 l 1
 693 889 l 1
 803 591 l 1
 773 591 l 1
 746 668 l 1
 737 693 l 1
 625 693 l 1
 617 668 l 1
 746 668 l 1
 737 693 l 1
 681 850 l 1
 625 693 l 1
 617 668 l 1
 590 591 l 1
 559 591 l 1
360 749 m 1xdffe
 414 749 l 2
 429 749 441 751 452 755 c 0
 463 759 471 765 477 774 c 0
 483 783 486 794 486 807 c 0
 486 820 483 831 477 840 c 0
 471 849 463 854 452 858 c 0
 441 862 429 864 414 864 c 2
 360 864 l 1
 360 749 l 1xdffe
333 591 m 1
 333 889 l 1
 416 889 l 2
 438 889 456 886 471 879 c 0
 486 872 496 863 503 851 c 0
 510 839 514 824 514 807 c 0
 514 783 508 764 494 750 c 0
 484 740 470 733 453 729 c 1
 534 591 l 1
 501 591 l 1
 423 725 l 2
 421 725 420 725 418 725 c 0
 410 725 410 725 404 725 c 2
 360 725 l 1
 360 591 l 1
 333 591 l 1
137 614 m 0
 159 614 179 619 195 629 c 0
 211 639 223 654 232 673 c 0
 241 692 245 714 245 740 c 0
 245 766 241 788 232 807 c 0
 223 826 211 841 195 851 c 0
 179 861 159 867 137 867 c 0
 115 867 96 861 80 851 c 0
 64 841 52 827 43 808 c 0
 34 789 29 766 29 740 c 0
 29 714 34 692 43 673 c 0
 52 654 64 639 80 629 c 0
 96 619 115 614 137 614 c 0
137 587 m 0
 110 587 87 593 66 606 c 0
 46 619 29 636 18 659 c 0
 7 682 2 709 2 740 c 0
 2 771 7 798 18 821 c 0
 29 844 46 861 66 874 c 0
 87 887 110 894 137 894 c 0
 164 894 189 887 209 874 c 0
 230 861 245 844 256 821 c 0
 267 798 273 771 273 740 c 0
 273 709 267 682 256 659 c 0
 245 636 230 619 209 606 c 0
 189 593 164 587 137 587 c 0
EndSplineSet
Validated: 5
EndChar

StartChar: uni008C
Encoding: 140 140 39
Width: 1394
Flags: W
HStem: 264 278<0 1394> 592 26<273.166 380.213 1018 1155 1226 1393> 723 25<28 131.454 530 593 783 886.454> 731 25<1226 1376> 865 25<28 131.454 530 635.002 783 886.454 1226 1393>
VStem: 0 28<592 723 748 865> 154 28<767.699 845.171> 221 28<643.326 890> 406 27<646.236 890> 502 28<592 726 750 865> 656 28<768.828 846.905> 755 28<592 723 748 865> 909 28<767.699 845.171> 990 28<618 890> 1198 28<618 731 756 865>
LayerCount: 2
Fore
SplineSet
0 592 m 1xeffe
 0 890 l 1
 83 890 l 2
 114 890 139 883 156 869 c 0
 173 855 182 834 182 807 c 0
 182 780 173 760 156 745 c 0
 139 730 114 723 83 723 c 2
 28 723 l 1
 28 592 l 1
 0 592 l 1xeffe
28 748 m 1
 81 748 l 2
 104 748 121 752 134 762 c 0
 147 772 154 788 154 807 c 0
 154 826 148 840 135 850 c 0
 123 860 105 865 81 865 c 2
 28 865 l 1
 28 748 l 1
327 588 m 0
 293 588 266 598 248 617 c 0
 230 636 221 664 221 700 c 2
 221 890 l 1
 249 890 l 1
 249 703 l 2
 249 684 252 667 257 654 c 0
 262 641 271 631 282 624 c 0
 294 617 309 614 327 614 c 0
 345 614 359 617 371 624 c 0
 383 631 392 642 397 655 c 0
 403 668 406 685 406 704 c 2
 406 890 l 1
 433 890 l 1
 433 702 l 2
 433 665 424 636 406 617 c 0
 388 598 362 588 327 588 c 0
502 592 m 1
 502 890 l 1
 586 890 l 2
 608 890 625 887 640 880 c 0
 655 873 666 864 673 852 c 0
 680 840 684 825 684 808 c 0
 684 784 678 765 664 751 c 0
 654 741 640 734 623 730 c 1
 703 592 l 1
 671 592 l 1
 593 726 l 2
 591 726 590 726 588 726 c 0
 580 726 580 726 574 726 c 2
 530 726 l 1
 530 592 l 1
 502 592 l 1
530 750 m 1
 583 750 l 2
 598 750 611 752 622 756 c 0xdffe
 633 760 641 766 647 775 c 0
 653 784 656 795 656 808 c 0
 656 821 653 832 647 841 c 0
 641 850 633 855 622 859 c 0
 611 863 598 865 583 865 c 2
 530 865 l 1
 530 750 l 1
755 592 m 1
 755 890 l 1
 838 890 l 2
 869 890 894 883 911 869 c 0
 928 855 937 834 937 807 c 0
 937 780 928 760 911 745 c 0
 894 730 869 723 838 723 c 2
 783 723 l 1xeffe
 783 592 l 1
 755 592 l 1
783 748 m 1
 836 748 l 2
 859 748 876 752 889 762 c 0
 902 772 909 788 909 807 c 0
 909 826 903 840 890 850 c 0
 878 860 860 865 836 865 c 2
 783 865 l 1
 783 748 l 1
990 592 m 1
 990 890 l 1
 1018 890 l 1
 1018 618 l 1
 1155 618 l 1
 1155 592 l 1
 990 592 l 1
1198 592 m 1
 1198 890 l 1
 1393 890 l 1
 1393 865 l 1
 1226 865 l 1
 1226 756 l 1
 1376 756 l 1
 1376 731 l 1
 1226 731 l 1xdffe
 1226 618 l 1
 1393 618 l 1
 1393 592 l 1
 1198 592 l 1
0 542 m 1
 1394 542 l 1
 1394 264 l 1
 0 264 l 1
 0 542 l 1
EndSplineSet
Validated: 1
EndChar

StartChar: uni008D
Encoding: 141 141 40
Width: 737
Flags: W
HStem: 264 278<0 739> 591 25<281 448 531 646.347> 724 25<28 91 281 431> 864 25<28 132.205 281 448 531 645.484>
VStem: 0 28<591 724 749 864> 154 28<767.828 844.699> 253 28<616 730 755 864> 503 28<616 863> 707 28<671.212 805.017>
LayerCount: 2
Fore
SplineSet
0 591 m 1
 0 889 l 1
 83 889 l 2
 105 889 123 886 138 879 c 0
 153 872 164 863 171 851 c 0
 178 839 182 824 182 807 c 0
 182 783 175 764 161 750 c 0
 151 740 138 732 121 728 c 1
 201 591 l 1
 168 591 l 1
 91 724 l 2
 89 724 88 724 86 724 c 0
 78 724 77 724 71 724 c 2
 28 724 l 1
 28 591 l 1
 0 591 l 1
28 749 m 1
 81 749 l 2
 96 749 109 751 120 755 c 0
 131 759 139 765 145 774 c 0
 151 783 154 793 154 806 c 0
 154 819 151 830 145 839 c 0
 139 848 130 854 119 858 c 0
 108 862 96 864 81 864 c 2
 28 864 l 1
 28 749 l 1
253 591 m 1
 253 889 l 1
 448 889 l 1
 448 864 l 1
 281 864 l 1
 281 755 l 1
 431 755 l 1
 431 730 l 1
 281 730 l 1
 281 616 l 1
 448 616 l 1
 448 591 l 1
 253 591 l 1
503 591 m 1
 503 889 l 1
 583 889 l 2
 631 889 669 876 695 849 c 0
 722 823 735 785 735 737 c 0
 735 690 722 653 696 628 c 0
 670 603 632 591 583 591 c 2
 503 591 l 1
531 616 m 1
 580 616 l 2
 607 616 630 620 649 629 c 0
 668 638 682 651 692 669 c 0
 702 687 707 710 707 738 c 0
 707 766 702 789 692 808 c 0
 682 827 669 841 650 850 c 0
 631 859 609 863 582 863 c 2
 531 863 l 1
 531 616 l 1
0 542 m 1
 739 542 l 1
 739 264 l 1
 0 264 l 1
 0 542 l 1
EndSplineSet
Validated: 1
EndChar

StartChar: uni008E
Encoding: 142 142 41
Width: 1265
Flags: W
HStem: 264 278<0 1265> 592 26<1095 1262> 731 26<457 614 1095 1245> 855 20G<170.884 211.198> 865 25<786 890 919 1023 1095 1262>
VStem: 429 28<592 731 757 890> 614 28<592 731 757 890> 715 28<592 890> 890 29<592 865> 1067 28<618 731 756 865>
LayerCount: 2
Fore
SplineSet
87 592 m 1xefc0
 1 890 l 1
 31 890 l 1xefc0
 103 633 l 1
 177 875 l 1
 205 875 l 1xf7c0
 280 633 l 1
 352 890 l 1
 381 890 l 1
 296 592 l 1
 267 592 l 1
 192 834 l 1
 116 592 l 1
 87 592 l 1xefc0
429 592 m 1
 429 890 l 1
 457 890 l 1
 457 757 l 1
 614 757 l 1
 614 890 l 1
 642 890 l 1
 642 592 l 1
 614 592 l 1
 614 731 l 1
 457 731 l 1
 457 592 l 1
 429 592 l 1
715 592 m 1
 715 890 l 1
 743 890 l 1
 743 592 l 1
 715 592 l 1
890 592 m 1
 890 865 l 1
 786 865 l 1
 786 890 l 1
 1023 890 l 1
 1023 865 l 1
 919 865 l 1
 919 592 l 1
 890 592 l 1
1067 592 m 1
 1067 890 l 1
 1262 890 l 1
 1262 865 l 1
 1095 865 l 1
 1095 756 l 1
 1245 756 l 1
 1245 731 l 1
 1095 731 l 1
 1095 618 l 1
 1262 618 l 1
 1262 592 l 1
 1067 592 l 1
0 542 m 1
 1265 542 l 1
 1265 264 l 1
 0 264 l 1
 0 542 l 1
EndSplineSet
Validated: 1
EndChar

StartChar: uni008F
Encoding: 143 143 42
Width: 1552
Flags: W
HStem: 264 278<0 1552> 592 26<308 475 557 694 765 902 962.786 1080.35> 731 25<308 458> 855 20G<1338.88 1379.2> 865 25<308 475 965.315 1077.82>
VStem: 104 28<592 706> 280 28<618 731 756 865> 529 28<618 890> 737 28<618 890> 886 28<672.222 810.846> 1129 28<672.222 809.778>
LayerCount: 2
Fore
SplineSet
104 592 m 1xefe0
 104 706 l 1
 -1 890 l 1
 31 890 l 1
 118 734 l 1
 205 890 l 1
 237 890 l 1
 132 706 l 1
 132 592 l 1
 104 592 l 1xefe0
280 592 m 1
 280 890 l 1
 475 890 l 1
 475 865 l 1
 308 865 l 1
 308 756 l 1
 458 756 l 1
 458 731 l 1
 308 731 l 1
 308 618 l 1
 475 618 l 1
 475 592 l 1
 280 592 l 1
529 592 m 1
 529 890 l 1
 557 890 l 1
 557 618 l 1
 694 618 l 1
 694 592 l 1
 529 592 l 1
737 592 m 1
 737 890 l 1
 765 890 l 1
 765 618 l 1
 902 618 l 1
 902 592 l 1
 737 592 l 1
1021 588 m 0
 994 588 971 594 950 607 c 0
 930 620 913 637 902 660 c 0
 891 683 886 710 886 741 c 0
 886 772 891 799 902 822 c 0
 913 845 930 862 950 875 c 0
 971 888 994 895 1021 895 c 0
 1048 895 1073 888 1093 875 c 0xf7e0
 1114 862 1129 845 1140 822 c 0
 1151 799 1157 772 1157 741 c 0
 1157 710 1151 683 1140 660 c 0
 1129 637 1114 620 1093 607 c 0
 1073 594 1048 588 1021 588 c 0
1021 615 m 0
 1043 615 1063 620 1079 630 c 0
 1095 640 1107 655 1116 674 c 0
 1125 693 1129 715 1129 741 c 0
 1129 767 1125 789 1116 808 c 0
 1107 827 1095 842 1079 852 c 0
 1063 862 1043 868 1021 868 c 0
 999 868 980 862 964 852 c 0
 948 842 936 828 927 809 c 0
 918 790 914 767 914 741 c 0
 914 715 918 693 927 674 c 0
 936 655 948 640 964 630 c 0
 980 620 999 615 1021 615 c 0
1255 592 m 1
 1169 890 l 1
 1199 890 l 1xefe0
 1271 633 l 1
 1345 875 l 1
 1373 875 l 1xf7e0
 1448 633 l 1
 1520 890 l 1
 1549 890 l 1xefe0
 1464 592 l 1
 1435 592 l 1
 1360 834 l 1
 1284 592 l 1
 1255 592 l 1
0 542 m 1
 1552 542 l 1
 1552 264 l 1
 0 264 l 1
 0 542 l 1
EndSplineSet
Validated: 1
EndChar
